<svg width="251" height="84" viewBox="0 0 251 84" fill="none" xmlns="http://www.w3.org/2000/svg">
<path d="M227.35 53.3958L230.74 10.4751L240.74 11.3181L232.76 53.9718L227.35 53.3958Z" fill="black" stroke="white" stroke-width="20" stroke-linejoin="round"/>
<path d="M231.295 64.8968C232.159 64.2562 232.662 63.4026 232.803 62.3359C232.945 61.2692 232.684 60.3024 232.02 59.4357C231.356 58.5689 230.479 58.0632 229.389 57.9187C228.323 57.7772 227.368 58.0398 226.524 58.7067C225.68 59.3735 225.188 60.2403 225.046 61.307C224.905 62.3737 225.156 63.3273 225.8 64.1678C226.44 65.0315 227.294 65.5341 228.36 65.6756C229.45 65.8201 230.429 65.5605 231.295 64.8968Z" fill="black" stroke="white" stroke-width="20" stroke-linejoin="round"/>
<path d="M188.524 61.197L186.079 16.8035L193.026 16.2736L193.606 34.6716C194.665 33.4158 195.805 32.4192 197.027 31.6819C198.248 30.9243 199.396 30.3416 200.47 29.9335C201.703 29.4785 202.932 29.1549 204.156 28.9629C208.714 28.7742 212.428 30.186 215.3 33.198C216.693 34.6553 217.818 36.457 218.675 38.6031C219.551 40.7283 220.095 43.1499 220.309 45.868C220.368 47.2997 220.408 48.7625 220.43 50.2564C220.471 51.7494 220.471 53.2139 220.43 54.6498C220.368 56.0865 220.263 57.4543 220.115 58.7532C219.987 60.0513 219.783 61.2212 219.503 62.263L212.586 62.0645C213.091 60.1044 213.426 58.2019 213.592 56.3568C213.778 54.511 213.892 52.86 213.933 51.404C213.943 49.7068 213.907 48.0923 213.823 46.5606C213.633 44.4071 213.184 42.5875 212.476 41.1019C211.788 39.6154 210.951 38.4078 209.963 37.4791C208.996 36.5697 207.929 35.9271 206.762 35.5512C205.614 35.1543 204.496 34.9784 203.407 35.0234C202.281 35.1508 201.136 35.5315 199.97 36.1656C198.982 36.6913 197.934 37.4921 196.828 38.5681C195.72 39.6239 194.71 41.0999 193.799 42.9959L194.448 60.8306L188.524 61.197Z" fill="black" stroke="white" stroke-width="20" stroke-linejoin="round"/>
<path d="M184.3 47.9888C183.912 50.5019 183.134 52.7609 181.967 54.7657C180.799 56.7705 179.366 58.4483 177.666 59.7991C175.967 61.15 174.072 62.1132 171.982 62.6889C169.888 63.2845 167.735 63.4114 165.521 63.0694C160.993 62.3701 157.483 60.1737 154.99 56.4804C153.771 54.7197 152.909 52.6975 152.404 50.414C151.899 48.1305 151.85 45.6723 152.257 43.0394C152.667 40.3866 153.457 38.0479 154.627 36.0231C155.801 33.9784 157.234 32.3006 158.927 30.9897C160.601 29.6757 162.469 28.7492 164.534 28.2104C166.598 27.6715 168.737 27.573 170.951 27.915C173.165 28.257 175.18 29.0277 176.996 30.2272C178.815 31.4067 180.332 32.8868 181.548 34.6675C182.761 36.4681 183.62 38.5102 184.125 40.7937C184.633 43.0573 184.691 45.4556 184.3 47.9888ZM177.996 46.9538C178.218 45.5177 178.263 44.034 178.132 42.5025C178.001 40.9711 177.636 39.5669 177.037 38.2899C176.441 36.9929 175.58 35.8899 174.454 34.9808C173.332 34.0518 171.893 33.4518 170.137 33.1807C168.442 32.9188 166.929 33.0629 165.598 33.613C164.271 34.1431 163.127 34.9365 162.167 35.9931C161.211 37.0298 160.439 38.2584 159.852 39.679C159.265 41.0995 158.861 42.5278 158.639 43.9639C158.417 45.4 158.383 46.8753 158.537 48.3899C158.714 49.8876 159.111 51.2865 159.727 52.5865C160.346 53.8666 161.196 54.9781 162.275 55.9208C163.378 56.8468 164.737 57.4345 166.353 57.684C168.048 57.9459 169.561 57.8018 170.892 57.2518C172.246 56.6848 173.411 55.8846 174.387 54.8509C175.367 53.7974 176.157 52.5818 176.758 51.2042C177.362 49.8067 177.774 48.3899 177.996 46.9538Z" fill="black" stroke="white" stroke-width="20" stroke-linejoin="round"/>
<path d="M130.545 40.8939L147.545 40.1969V46.5302L130.673 47.1969L130.545 40.8939Z" fill="black" stroke="white" stroke-width="20" stroke-linejoin="round"/>
<path d="M118.032 30.1293L117.725 24.507L123.269 24.318L125.201 56.7704C125.221 57.374 125.214 57.9888 125.179 58.6148C125.144 59.2408 125.071 59.8599 124.959 60.472C124.516 62.9768 123.486 65.3024 121.867 67.4486C121.047 68.5035 120.098 69.4629 119.019 70.3266C117.921 71.1727 116.682 71.8862 115.302 72.467C113.923 73.0667 112.401 73.4866 110.734 73.7269C108.518 73.946 106.356 73.8497 104.251 73.438C102.374 73.0681 100.531 72.3274 98.7196 71.2161C96.9087 70.1048 95.509 68.4848 94.5205 66.3562L99.8161 63.6316C100.571 65.0759 101.577 66.1638 102.834 66.8951C104.112 67.6441 105.389 68.1001 106.666 68.2631C108.059 68.4753 109.512 68.4379 111.025 68.1509C111.675 67.9764 112.276 67.7674 112.827 67.5238C113.397 67.2789 113.918 67.0089 114.391 66.7137C115.315 66.1056 116.095 65.4409 116.728 64.7193C117.382 64.0154 117.892 63.283 118.259 62.5221C118.441 62.1322 118.596 61.7536 118.724 61.3862C118.87 61.0176 118.998 60.6596 119.108 60.3123C119.309 59.6188 119.429 58.9873 119.467 58.4177C119.526 57.8657 119.546 57.4392 119.526 57.138L119.287 53.4393C118.227 54.5853 117.104 55.4897 115.918 56.1525C114.75 56.7952 113.657 57.2819 112.639 57.6124C112.046 57.802 111.452 57.9634 110.856 58.0965C110.278 58.2284 109.698 58.3227 109.116 58.3793C104.674 58.667 100.908 57.4272 97.8174 54.6597C96.3331 53.3382 95.1204 51.6872 94.1793 49.7068C93.2571 47.7251 92.7136 45.4637 92.5491 42.9226C92.3832 40.3627 92.6781 38.0564 93.4335 36.0039C94.2066 33.9313 95.2639 32.1616 96.6054 30.6949C97.9658 29.227 99.5263 28.0768 101.287 27.2445C103.046 26.3934 104.849 25.9081 106.693 25.7886C107.983 25.8563 109.291 26.0551 110.616 26.3851C111.75 26.6708 112.978 27.1016 114.301 27.6775C115.623 28.2534 116.867 29.0707 118.032 30.1293ZM108.765 52.9583C111.287 52.7949 113.502 51.8198 115.408 50.0329C116.3 49.2002 117.04 48.2261 117.629 47.1105C118.217 45.9761 118.592 44.7516 118.752 43.4369L118.513 39.7382C118.219 38.4152 117.698 37.2298 116.95 36.1819C116.2 35.1153 115.31 34.2183 114.28 33.4912C112.14 31.9664 109.781 31.2875 107.202 31.4546C105.847 31.5424 104.613 31.9058 103.502 32.5448C102.408 33.1639 101.478 33.9896 100.713 35.022C99.9673 36.0532 99.4023 37.2523 99.0183 38.6192C98.6343 39.9861 98.4923 41.4413 98.5923 42.9848C98.6922 44.5283 99.0196 45.9342 99.5743 47.2025C100.128 48.452 100.858 49.5199 101.766 50.4062C102.654 51.2749 103.69 51.9449 104.874 52.4164C106.075 52.8679 107.372 53.0485 108.765 52.9583Z" fill="black" stroke="white" stroke-width="20" stroke-linejoin="round"/>
<path d="M65.3106 61.376L58.7647 61.8048L59.1706 44.8154C59.1988 43.6647 59.2317 42.4334 59.2694 41.1214C59.3084 39.7894 59.3425 38.5379 59.3719 37.367C59.4024 36.1759 59.428 35.2373 59.4487 34.5511C59.5374 31.7056 59.6042 29.5665 59.6492 28.1337L66.5465 28.4234L66.1487 37.1339C66.882 36.0252 67.7017 34.9924 68.6079 34.0355C69.5153 33.0584 70.486 32.2065 71.52 31.4796C72.554 30.7527 73.6394 30.1805 74.7763 29.763C75.9333 29.3467 77.1287 29.1349 78.3624 29.1276C79.9197 29.1193 81.2517 29.3301 82.3583 29.7599C83.4649 30.1898 84.4019 30.7511 85.1693 31.4438C85.938 32.1164 86.5578 32.9115 87.0288 33.8292C87.5187 34.7682 87.8777 35.6994 88.1057 36.6228C88.3527 37.5675 88.5084 38.517 88.5728 39.471C88.6586 40.4062 88.6989 41.2577 88.6935 42.0257C88.6079 45.4981 88.4304 48.9853 88.1611 52.4872C87.8918 55.9891 87.6045 59.6213 87.2994 63.3839L81.117 62.8032C81.4715 59.5692 81.8058 56.334 82.1199 53.0976C82.4543 49.8624 82.6393 46.588 82.675 43.2744C82.717 42.5693 82.6845 41.7586 82.5773 40.8424C82.4714 39.9061 82.2339 38.972 81.8648 38.0402C81.5998 37.3976 81.24 36.8202 80.7853 36.3078C80.3294 35.8157 79.7561 35.4277 79.0654 35.1439C78.3948 34.8613 77.5919 34.7629 76.6568 34.8487C75.0508 34.9956 73.37 36.058 71.6145 38.0359C70.2 39.603 68.6367 41.8558 66.9247 44.7945C66.134 46.1517 65.7238 47.6937 65.6733 49.2636L65.5007 54.6244C65.4632 55.5926 65.4329 56.44 65.4098 57.1665C65.3868 57.893 65.3703 58.5086 65.3604 59.0135C65.3311 60.1844 65.3145 60.9719 65.3106 61.376Z" fill="black" stroke="white" stroke-width="20" stroke-linejoin="round"/>
<path d="M44.7428 32.1868L50.9671 31.418L51.9126 46.4677C52.155 50.6078 52.364 53.8578 52.5397 56.2175C52.7184 59.1022 52.8762 61.3688 53.013 63.0174L46.8282 63.5308C46.7548 62.4023 46.6727 61.1694 46.582 59.8322C46.5096 58.4725 46.4194 57.0197 46.3113 55.4738C46.1281 52.7785 45.9173 49.5078 45.679 45.6615L44.7428 32.1868Z" fill="black" stroke="white" stroke-width="20" stroke-linejoin="round"/>
<path d="M50.4567 27.666C51.2514 26.7494 51.6004 25.7079 51.5035 24.5413C51.405 23.3547 50.8883 22.3748 49.9533 21.6019C49.0368 20.8071 47.9852 20.459 46.7985 20.5575C45.6319 20.6544 44.6622 21.1703 43.8892 22.1053C43.1347 23.0185 42.8067 24.0684 42.9052 25.2551C43.002 26.4216 43.4978 27.3931 44.3926 28.1694C45.3058 28.9239 46.3457 29.2527 47.5122 29.1559C48.6989 29.0574 49.6804 28.5607 50.4567 27.666Z" fill="black" stroke="white" stroke-width="20" stroke-linejoin="round"/>
<path d="M16.2114 58.5783L40.7811 57.1915L41.0574 63.7048L9.99996 64.8481L12.4166 21.0129L18.6556 21.0137L16.2114 58.5783Z" fill="black" stroke="white" stroke-width="20" stroke-linejoin="round"/>
<ellipse cx="45.0001" cy="22.5" rx="7" ry="8.5" fill="white"/>
<ellipse cx="232" cy="62.5" rx="7" ry="8.5" fill="white"/>
<rect x="10.0001" y="68" width="85" height="6" fill="white"/>
<ellipse cx="75.3126" cy="27.2959" rx="19.1628" ry="12.7425" transform="rotate(11.4602 75.3126 27.2959)" fill="white"/>
<path d="M127 15.0001C101.8 11.8001 92.8335 18.3334 91.5001 22.0001L127.5 22.5001L127 15.0001Z" fill="white"/>
<path d="M31.0001 21.4998C29.0001 16.4998 25.6668 13.8333 24.5001 12.9999L20.5001 52.9999L40.5001 51.4999L39.0001 29.4999C40.5001 23.4999 46.3725 10.5212 43.5001 11C37.5001 11.9999 34.5001 14.4999 31.0001 21.4998Z" fill="white"/>
<path d="M227.351 53.3958L230.741 10.4751L240.741 11.3181L232.761 53.9718L227.351 53.3958Z" fill="black"/>
<path d="M231.296 64.8968C232.16 64.2562 232.662 63.4026 232.804 62.3359C232.945 61.2692 232.684 60.3024 232.02 59.4357C231.357 58.5689 230.48 58.0632 229.39 57.9187C228.323 57.7772 227.368 58.0398 226.524 58.7067C225.681 59.3735 225.188 60.2403 225.047 61.307C224.905 62.3737 225.156 63.3273 225.8 64.1678C226.441 65.0315 227.294 65.5341 228.361 65.6756C229.451 65.8201 230.429 65.5605 231.296 64.8968Z" fill="black"/>
<path d="M188.524 61.197L186.079 16.8035L193.026 16.2736L193.606 34.6716C194.665 33.4158 195.805 32.4192 197.027 31.6819C198.248 30.9243 199.396 30.3416 200.47 29.9335C201.703 29.4785 202.932 29.1549 204.156 28.9629C208.714 28.7742 212.428 30.186 215.3 33.198C216.693 34.6553 217.818 36.457 218.675 38.6031C219.551 40.7283 220.095 43.1499 220.309 45.868C220.368 47.2997 220.408 48.7625 220.43 50.2564C220.471 51.7494 220.471 53.2139 220.43 54.6498C220.368 56.0865 220.263 57.4543 220.115 58.7532C219.987 60.0513 219.783 61.2212 219.503 62.263L212.586 62.0645C213.091 60.1044 213.426 58.2019 213.592 56.3568C213.778 54.511 213.892 52.86 213.933 51.404C213.943 49.7068 213.907 48.0923 213.823 46.5606C213.633 44.4071 213.184 42.5875 212.476 41.1019C211.788 39.6154 210.951 38.4078 209.963 37.4791C208.996 36.5697 207.929 35.9271 206.762 35.5512C205.614 35.1543 204.496 34.9784 203.407 35.0234C202.281 35.1508 201.136 35.5315 199.97 36.1656C198.982 36.6913 197.934 37.4921 196.828 38.5681C195.72 39.6239 194.71 41.0999 193.799 42.9959L194.448 60.8306L188.524 61.197Z" fill="black"/>
<path d="M184.3 47.9888C183.912 50.5019 183.134 52.7609 181.967 54.7657C180.8 56.7705 179.366 58.4483 177.667 59.7991C175.967 61.15 174.073 62.1132 171.982 62.6889C169.889 63.2845 167.735 63.4114 165.521 63.0694C160.994 62.3701 157.483 60.1737 154.991 56.4804C153.772 54.7197 152.91 52.6975 152.405 50.414C151.9 48.1305 151.851 45.6723 152.257 43.0394C152.667 40.3866 153.457 38.0479 154.628 36.0231C155.801 33.9784 157.235 32.3006 158.928 30.9897C160.601 29.6757 162.47 28.7492 164.534 28.2104C166.598 27.6715 168.737 27.573 170.951 27.915C173.165 28.257 175.18 29.0277 176.996 30.2272C178.815 31.4067 180.333 32.8868 181.549 34.6675C182.761 36.4681 183.62 38.5102 184.125 40.7937C184.633 43.0573 184.692 45.4556 184.3 47.9888ZM177.997 46.9538C178.219 45.5177 178.264 44.034 178.133 42.5025C178.002 40.9711 177.637 39.5669 177.038 38.2899C176.441 36.9929 175.58 35.8899 174.455 34.9808C173.332 34.0518 171.893 33.4518 170.138 33.1807C168.443 32.9188 166.93 33.0629 165.599 33.613C164.271 34.1431 163.128 34.9365 162.168 35.9931C161.211 37.0298 160.44 38.2584 159.853 39.679C159.266 41.0995 158.861 42.5278 158.639 43.9639C158.418 45.4 158.384 46.8753 158.538 48.3899C158.715 49.8876 159.111 51.2865 159.727 52.5865C160.347 53.8666 161.196 54.9781 162.276 55.9208C163.378 56.8468 164.738 57.4345 166.353 57.684C168.049 57.9459 169.562 57.8018 170.892 57.2518C172.246 56.6848 173.411 55.8846 174.388 54.8509C175.367 53.7974 176.157 52.5818 176.758 51.2042C177.362 49.8067 177.775 48.3899 177.997 46.9538Z" fill="black"/>
<path d="M130.545 40.8939L147.545 40.1969V46.5302L130.673 47.1969L130.545 40.8939Z" fill="black"/>
<path d="M118.032 30.1293L117.725 24.507L123.269 24.318L125.201 56.7704C125.221 57.374 125.214 57.9888 125.179 58.6148C125.144 59.2408 125.071 59.8599 124.959 60.472C124.516 62.9768 123.486 65.3024 121.867 67.4486C121.047 68.5035 120.098 69.4629 119.019 70.3266C117.921 71.1727 116.682 71.8862 115.302 72.467C113.923 73.0667 112.401 73.4866 110.734 73.7269C108.518 73.946 106.356 73.8497 104.251 73.438C102.374 73.0681 100.531 72.3274 98.7196 71.2161C96.9087 70.1048 95.509 68.4848 94.5205 66.3562L99.8161 63.6316C100.571 65.0759 101.577 66.1638 102.834 66.8951C104.112 67.6441 105.389 68.1001 106.666 68.2631C108.059 68.4753 109.512 68.4379 111.025 68.1509C111.675 67.9764 112.276 67.7674 112.827 67.5238C113.397 67.2789 113.918 67.0089 114.391 66.7137C115.315 66.1056 116.095 65.4409 116.728 64.7193C117.382 64.0154 117.892 63.283 118.259 62.5221C118.441 62.1322 118.596 61.7536 118.724 61.3862C118.87 61.0176 118.998 60.6596 119.108 60.3123C119.309 59.6188 119.429 58.9873 119.467 58.4177C119.526 57.8657 119.546 57.4392 119.526 57.138L119.287 53.4393C118.227 54.5853 117.104 55.4897 115.918 56.1525C114.75 56.7952 113.657 57.2819 112.639 57.6124C112.046 57.802 111.452 57.9634 110.856 58.0965C110.278 58.2284 109.698 58.3227 109.116 58.3793C104.674 58.667 100.908 57.4272 97.8174 54.6597C96.3331 53.3382 95.1204 51.6872 94.1793 49.7068C93.2571 47.7251 92.7136 45.4637 92.5491 42.9226C92.3832 40.3627 92.6781 38.0564 93.4335 36.0039C94.2066 33.9313 95.2639 32.1616 96.6054 30.6949C97.9658 29.227 99.5263 28.0768 101.287 27.2445C103.046 26.3934 104.849 25.9081 106.693 25.7886C107.983 25.8563 109.291 26.0551 110.616 26.3851C111.75 26.6708 112.978 27.1016 114.301 27.6775C115.623 28.2534 116.867 29.0707 118.032 30.1293ZM108.765 52.9583C111.287 52.7949 113.502 51.8198 115.408 50.0329C116.3 49.2002 117.04 48.2261 117.629 47.1105C118.217 45.9761 118.592 44.7516 118.752 43.4369L118.513 39.7382C118.219 38.4152 117.698 37.2298 116.95 36.1819C116.2 35.1153 115.31 34.2183 114.28 33.4912C112.14 31.9664 109.781 31.2875 107.202 31.4546C105.847 31.5424 104.613 31.9058 103.502 32.5448C102.408 33.1639 101.478 33.9896 100.713 35.022C99.9673 36.0532 99.4023 37.2523 99.0183 38.6192C98.6343 39.9861 98.4923 41.4413 98.5923 42.9848C98.6922 44.5283 99.0196 45.9342 99.5743 47.2025C100.128 48.452 100.858 49.5199 101.766 50.4062C102.654 51.2749 103.69 51.9449 104.874 52.4164C106.075 52.8679 107.372 53.0485 108.765 52.9583Z" fill="black"/>
<path d="M65.3106 62.376L58.7647 62.8048L59.1706 45.8154C59.1988 44.6647 59.2317 43.4334 59.2694 42.1214C59.3084 40.7894 59.3425 39.5379 59.3719 38.367C59.4024 37.1759 59.428 36.2373 59.4487 35.5511C59.5374 32.7056 59.6042 30.5665 59.6492 29.1337L66.5465 29.4234L66.1487 38.1339C66.882 37.0252 67.7017 35.9924 68.6079 35.0355C69.5153 34.0584 70.486 33.2065 71.52 32.4796C72.554 31.7527 73.6394 31.1805 74.7763 30.763C75.9333 30.3467 77.1287 30.1349 78.3624 30.1276C79.9197 30.1193 81.2517 30.3301 82.3583 30.7599C83.4649 31.1898 84.4019 31.7511 85.1693 32.4438C85.938 33.1164 86.5578 33.9115 87.0288 34.8292C87.5187 35.7682 87.8777 36.6994 88.1057 37.6228C88.3527 38.5675 88.5084 39.517 88.5728 40.471C88.6586 41.4062 88.6989 42.2577 88.6935 43.0257C88.6079 46.4981 88.4304 49.9853 88.1611 53.4872C87.8918 56.9891 87.6045 60.6213 87.2994 64.3839L81.117 63.8032C81.4715 60.5692 81.8058 57.334 82.1199 54.0976C82.4543 50.8624 82.6393 47.588 82.675 44.2744C82.717 43.5693 82.6845 42.7586 82.5773 41.8424C82.4714 40.9061 82.2339 39.972 81.8648 39.0402C81.5998 38.3976 81.24 37.8202 80.7853 37.3078C80.3294 36.8157 79.7561 36.4277 79.0654 36.1439C78.3948 35.8613 77.5919 35.7629 76.6568 35.8487C75.0508 35.9956 73.37 37.058 71.6145 39.0359C70.2 40.603 68.6367 42.8558 66.9247 45.7945C66.134 47.1517 65.7238 48.6937 65.6733 50.2636L65.5007 55.6244C65.4632 56.5926 65.4329 57.44 65.4098 58.1665C65.3868 58.893 65.3703 59.5086 65.3604 60.0135C65.3311 61.1844 65.3145 61.9719 65.3106 62.376Z" fill="black"/>
<path d="M44.7428 32.1868L50.9671 31.418L51.9126 46.4677C52.155 50.6078 52.364 53.8578 52.5397 56.2175C52.7184 59.1022 52.8762 61.3688 53.013 63.0174L46.8282 63.5308C46.7548 62.4023 46.6727 61.1694 46.582 59.8322C46.5096 58.4725 46.4194 57.0197 46.3113 55.4738C46.1281 52.7785 45.9173 49.5078 45.679 45.6615L44.7428 32.1868Z" fill="black"/>
<path d="M50.4567 27.666C51.2514 26.7494 51.6004 25.7079 51.5035 24.5413C51.405 23.3547 50.8883 22.3748 49.9533 21.6019C49.0368 20.8071 47.9852 20.459 46.7985 20.5575C45.6319 20.6544 44.6622 21.1703 43.8892 22.1053C43.1347 23.0185 42.8067 24.0684 42.9052 25.2551C43.002 26.4216 43.4978 27.3931 44.3926 28.1694C45.3058 28.9239 46.3457 29.2527 47.5122 29.1559C48.6989 29.0574 49.6804 28.5607 50.4567 27.666Z" fill="black"/>
<path d="M16.2114 58.5783L40.7811 57.1915L41.0574 63.7048L9.99996 64.8481L12.4166 21.0129L18.6556 21.0137L16.2114 58.5783Z" fill="black"/>
</svg>
