<svg width="322" height="84" viewBox="0 0 322 84" fill="none" xmlns="http://www.w3.org/2000/svg">
<ellipse cx="302" cy="61.5" rx="7" ry="9.5" fill="white"/>
<path d="M184.3 48.0017C183.912 50.5149 183.134 52.7738 181.967 54.7786C180.799 56.7834 179.366 58.4613 177.666 59.8121C175.967 61.1629 174.072 62.1261 171.982 62.7018C169.888 63.2975 167.735 63.4243 165.521 63.0823C160.993 62.383 157.483 60.1867 154.99 56.4933C153.771 54.7326 152.909 52.7105 152.404 50.4269C151.899 48.1434 151.85 45.6852 152.257 43.0524C152.667 40.3996 153.457 38.0608 154.627 36.0361C155.801 33.9914 157.234 32.3136 158.927 31.0026C160.601 29.6886 162.469 28.7622 164.534 28.2233C166.598 27.6844 168.737 27.586 170.951 27.9279C173.165 28.2699 175.18 29.0406 176.996 30.2401C178.815 31.4196 180.332 32.8997 181.548 34.6804C182.761 36.481 183.62 38.5231 184.125 40.8066C184.633 43.0702 184.691 45.4686 184.3 48.0017ZM177.996 46.9668C178.218 45.5307 178.263 44.0469 178.132 42.5155C178.001 40.984 177.636 39.5798 177.037 38.3028C176.441 37.0059 175.58 35.9028 174.454 34.9938C173.332 34.0648 171.893 33.4647 170.137 33.1936C168.442 32.9317 166.929 33.0758 165.598 33.6259C164.271 34.156 163.127 34.9494 162.167 36.0061C161.211 37.0428 160.439 38.2714 159.852 39.6919C159.265 41.1124 158.861 42.5408 158.639 43.9769C158.417 45.4129 158.383 46.8883 158.537 48.4029C158.714 49.9006 159.111 51.2994 159.727 52.5995C160.346 53.8796 161.196 54.991 162.275 55.9338C163.378 56.8597 164.737 57.4474 166.353 57.697C168.048 57.9589 169.561 57.8148 170.892 57.2647C172.246 56.6978 173.411 55.8975 174.387 54.8639C175.367 53.8103 176.157 52.5947 176.758 51.2172C177.362 49.8197 177.774 48.4029 177.996 46.9668Z" fill="white" stroke="white" stroke-width="20" stroke-linejoin="round"/>
<path d="M130.545 40.9068L147.545 40.2098V46.5432L130.673 47.2098L130.545 40.9068Z" fill="white" stroke="white" stroke-width="20" stroke-linejoin="round"/>
<path d="M118.032 30.1423L117.725 24.52L123.269 24.3309L125.201 56.7834C125.221 57.3869 125.214 58.0017 125.179 58.6277C125.144 59.2538 125.071 59.8728 124.959 60.4849C124.516 62.9898 123.486 65.3153 121.867 67.4616C121.047 68.5165 120.098 69.4758 119.019 70.3395C117.921 71.1856 116.682 71.8991 115.302 72.4799C113.923 73.0796 112.401 73.4996 110.734 73.7398C108.518 73.959 106.356 73.8627 104.251 73.4509C102.374 73.081 100.531 72.3404 98.7196 71.2291C96.9087 70.1177 95.509 68.4978 94.5205 66.3691L99.8161 63.6445C100.571 65.0888 101.577 66.1767 102.834 66.9081C104.112 67.657 105.389 68.113 106.666 68.276C108.059 68.4882 109.512 68.4508 111.025 68.1638C111.675 67.9894 112.276 67.7803 112.827 67.5367C113.397 67.2919 113.918 67.0218 114.391 66.7266C115.315 66.1186 116.095 65.4538 116.728 64.7323C117.382 64.0284 117.892 63.2959 118.259 62.535C118.441 62.1452 118.596 61.7665 118.724 61.3991C118.87 61.0305 118.998 60.6725 119.108 60.3252C119.309 59.6317 119.429 59.0002 119.467 58.4306C119.526 57.8787 119.546 57.4521 119.526 57.1509L119.287 53.4522C118.227 54.5983 117.104 55.5027 115.918 56.1654C114.75 56.8082 113.657 57.2948 112.639 57.6254C112.046 57.815 111.452 57.9763 110.856 58.1095C110.278 58.2414 109.698 58.3356 109.116 58.3923C104.674 58.68 100.908 57.4401 97.8174 54.6727C96.3331 53.3512 95.1204 51.7002 94.1793 49.7197C93.2571 47.738 92.7136 45.4766 92.5491 42.9355C92.3832 40.3756 92.6781 38.0694 93.4335 36.0168C94.2066 33.9442 95.2639 32.1746 96.6054 30.7079C97.9658 29.2399 99.5263 28.0898 101.287 27.2574C103.046 26.4063 104.849 25.921 106.693 25.8015C107.983 25.8692 109.291 26.068 110.616 26.398C111.75 26.6837 112.978 27.1145 114.301 27.6904C115.623 28.2663 116.867 29.0836 118.032 30.1423ZM108.765 52.9712C111.287 52.8079 113.502 51.8327 115.408 50.0459C116.3 49.2132 117.04 48.239 117.629 47.1234C118.217 45.989 118.592 44.7645 118.752 43.4499L118.513 39.7512C118.219 38.4281 117.698 37.2427 116.95 36.1949C116.2 35.1282 115.31 34.2313 114.28 33.5041C112.14 31.9794 109.781 31.3005 107.202 31.4675C105.847 31.5553 104.613 31.9187 103.502 32.5578C102.408 33.1768 101.478 34.0025 100.713 35.035C99.9673 36.0662 99.4023 37.2652 99.0183 38.6322C98.6343 39.9991 98.4923 41.4543 98.5923 42.9978C98.6922 44.5412 99.0196 45.9471 99.5743 47.2154C100.128 48.4649 100.858 49.5328 101.766 50.4191C102.654 51.2878 103.69 51.9579 104.874 52.4294C106.075 52.8808 107.372 53.0615 108.765 52.9712Z" fill="white" stroke="white" stroke-width="20" stroke-linejoin="round"/>
<path d="M65.3106 61.389L58.7647 61.8177L59.1706 44.8284C59.1988 43.6776 59.2317 42.4463 59.2694 41.1344C59.3084 39.8023 59.3425 38.5508 59.3719 37.3799C59.4024 36.1889 59.428 35.2502 59.4487 34.5641C59.5374 31.7186 59.6042 29.5795 59.6492 28.1466L66.5465 28.4364L66.1487 37.1469C66.882 36.0381 67.7017 35.0053 68.6079 34.0484C69.5153 33.0714 70.486 32.2194 71.52 31.4925C72.554 30.7656 73.6394 30.1934 74.7763 29.776C75.9333 29.3597 77.1287 29.1479 78.3624 29.1405C79.9197 29.1322 81.2517 29.343 82.3583 29.7729C83.4649 30.2028 84.4019 30.764 85.1693 31.4568C85.938 32.1293 86.5578 32.9244 87.0288 33.8421C87.5187 34.7811 87.8777 35.7123 88.1057 36.6357C88.3527 37.5805 88.5084 38.5299 88.5728 39.484C88.6586 40.4191 88.6989 41.2707 88.6935 42.0387C88.6079 45.5111 88.4304 48.9982 88.1611 52.5001C87.8918 56.002 87.6045 59.6343 87.2994 63.3969L81.117 62.8162C81.4715 59.5822 81.8058 56.347 82.1199 53.1106C82.4543 49.8754 82.6393 46.601 82.675 43.2873C82.717 42.5822 82.6845 41.7715 82.5773 40.8553C82.4714 39.919 82.2339 38.9849 81.8648 38.0531C81.5998 37.4106 81.24 36.8331 80.7853 36.3208C80.3294 35.8286 79.7561 35.4406 79.0654 35.1568C78.3948 34.8743 77.5919 34.7759 76.6568 34.8617C75.0508 35.0086 73.37 36.071 71.6145 38.0488C70.2 39.6159 68.6367 41.8688 66.9247 44.8074C66.134 46.1647 65.7238 47.7066 65.6733 49.2766L65.5007 54.6374C65.4632 55.6056 65.4329 56.4529 65.4098 57.1794C65.3868 57.9059 65.3703 58.5216 65.3604 59.0264C65.3311 60.1973 65.3145 60.9848 65.3106 61.389Z" fill="white" stroke="white" stroke-width="20" stroke-linejoin="round"/>
<path d="M44.7428 32.1998L50.9671 31.431L51.9126 46.4807C52.155 50.6208 52.364 53.8707 52.5397 56.2304C52.7184 59.1151 52.8762 61.3818 53.013 63.0303L46.8282 63.5437C46.7548 62.4152 46.6727 61.1823 46.582 59.8451C46.5096 58.4854 46.4194 57.0326 46.3113 55.4867C46.1281 52.7915 45.9173 49.5207 45.679 45.6744L44.7428 32.1998Z" fill="white" stroke="white" stroke-width="20" stroke-linejoin="round"/>
<path d="M50.4567 27.6789C51.2514 26.7624 51.6004 25.7208 51.5035 24.5543C51.405 23.3676 50.8883 22.3878 49.9533 21.6148C49.0368 20.8201 47.9852 20.472 46.7985 20.5705C45.6319 20.6673 44.6622 21.1832 43.8892 22.1182C43.1347 23.0314 42.8067 24.0813 42.9052 25.268C43.002 26.4346 43.4978 27.406 44.3926 28.1823C45.3058 28.9368 46.3457 29.2657 47.5122 29.1688C48.6989 29.0703 49.6804 28.5737 50.4567 27.6789Z" fill="white" stroke="white" stroke-width="20" stroke-linejoin="round"/>
<path d="M16.2114 58.5912L40.7811 57.2044L41.0574 63.7178L9.99996 64.8611L12.4166 21.0258L18.6556 21.0267L16.2114 58.5912Z" fill="white" stroke="white" stroke-width="20" stroke-linejoin="round"/>
<ellipse cx="45.0001" cy="22.5129" rx="7" ry="8.5" fill="white"/>
<rect x="10.0001" y="68.0129" width="85" height="6" fill="white"/>
<ellipse cx="75.3126" cy="27.3089" rx="19.1628" ry="12.7425" transform="rotate(11.4602 75.3126 27.3089)" fill="white"/>
<path d="M184.3 48.0017C183.912 50.5149 183.134 52.7738 181.967 54.7786C180.8 56.7834 179.366 58.4613 177.667 59.8121C175.967 61.1629 174.073 62.1261 171.982 62.7018C169.889 63.2975 167.735 63.4243 165.521 63.0823C160.994 62.383 157.483 60.1867 154.991 56.4933C153.772 54.7326 152.91 52.7105 152.405 50.4269C151.9 48.1434 151.851 45.6852 152.257 43.0524C152.667 40.3996 153.457 38.0608 154.628 36.0361C155.801 33.9914 157.235 32.3136 158.928 31.0026C160.601 29.6886 162.47 28.7622 164.534 28.2233C166.598 27.6844 168.737 27.586 170.951 27.9279C173.165 28.2699 175.18 29.0406 176.996 30.2401C178.815 31.4196 180.333 32.8997 181.549 34.6804C182.761 36.481 183.62 38.5231 184.125 40.8066C184.633 43.0702 184.692 45.4686 184.3 48.0017ZM177.997 46.9668C178.219 45.5307 178.264 44.0469 178.133 42.5155C178.002 40.984 177.637 39.5798 177.038 38.3028C176.441 37.0059 175.58 35.9028 174.455 34.9938C173.332 34.0648 171.893 33.4647 170.138 33.1936C168.443 32.9317 166.93 33.0758 165.599 33.6259C164.271 34.156 163.128 34.9494 162.168 36.0061C161.211 37.0428 160.44 38.2714 159.853 39.6919C159.266 41.1124 158.861 42.5408 158.639 43.9769C158.418 45.4129 158.384 46.8883 158.538 48.4029C158.715 49.9006 159.111 51.2994 159.727 52.5995C160.347 53.8796 161.196 54.991 162.276 55.9338C163.378 56.8597 164.738 57.4474 166.353 57.697C168.049 57.9589 169.562 57.8148 170.892 57.2647C172.246 56.6978 173.411 55.8975 174.388 54.8639C175.367 53.8103 176.157 52.5947 176.758 51.2172C177.362 49.8197 177.775 48.4029 177.997 46.9668Z" fill="white"/>
<path d="M298.262 53.3958L301.652 10.4751L311.652 11.3181L303.672 53.9718L298.262 53.3958Z" fill="white" stroke="white" stroke-width="20" stroke-linejoin="round"/>
<path d="M302.207 64.8968C303.071 64.2562 303.574 63.4026 303.715 62.3359C303.857 61.2692 303.595 60.3024 302.932 59.4357C302.268 58.5689 301.391 58.0632 300.301 57.9187C299.235 57.7772 298.279 58.0398 297.436 58.7067C296.592 59.3735 296.1 60.2403 295.958 61.307C295.817 62.3737 296.068 63.3273 296.711 64.1678C297.352 65.0315 298.206 65.5341 299.272 65.6756C300.362 65.8201 301.341 65.5605 302.207 64.8968Z" fill="white" stroke="white" stroke-width="20" stroke-linejoin="round"/>
<path d="M259.435 61.197L256.991 16.8035L263.938 16.2736L264.517 34.6716C265.576 33.4158 266.717 32.4192 267.939 31.6819C269.16 30.9243 270.307 30.3416 271.381 29.9335C272.615 29.4785 273.844 29.1549 275.068 28.9629C279.625 28.7742 283.34 30.186 286.211 33.198C287.605 34.6553 288.73 36.457 289.586 38.6031C290.462 40.7283 291.007 43.1499 291.22 45.868C291.279 47.2997 291.32 48.7625 291.341 50.2564C291.383 51.7494 291.383 53.2139 291.341 54.6498C291.279 56.0865 291.174 57.4543 291.026 58.7532C290.898 60.0513 290.694 61.2212 290.414 62.263L283.498 62.0645C284.002 60.1044 284.338 58.2019 284.504 56.3568C284.69 54.511 284.803 52.86 284.844 51.404C284.854 49.7068 284.818 48.0923 284.734 46.5606C284.544 44.4071 284.095 42.5875 283.387 41.1019C282.7 39.6154 281.862 38.4078 280.874 37.4791C279.907 36.5697 278.84 35.9271 277.673 35.5512C276.526 35.1543 275.408 34.9784 274.319 35.0234C273.193 35.1508 272.047 35.5315 270.882 36.1656C269.893 36.6913 268.846 37.4921 267.739 38.5681C266.631 39.6239 265.622 41.0999 264.71 42.9959L265.359 60.8306L259.435 61.197Z" fill="white" stroke="white" stroke-width="20" stroke-linejoin="round"/>
<path d="M184.301 47.9888C183.912 50.5019 183.135 52.7609 181.967 54.7657C180.8 56.7705 179.366 58.4483 177.667 59.7991C175.968 61.15 174.073 62.1132 171.983 62.6889C169.889 63.2845 167.736 63.4114 165.522 63.0694C160.994 62.3701 157.484 60.1737 154.991 56.4804C153.772 54.7197 152.91 52.6975 152.405 50.414C151.9 48.1305 151.851 45.6723 152.258 43.0394C152.667 40.3866 153.458 38.0479 154.628 36.0231C155.802 33.9784 157.235 32.3006 158.928 30.9897C160.602 29.6757 162.47 28.7492 164.534 28.2104C166.598 27.6715 168.738 27.573 170.952 27.915C173.166 28.257 175.181 29.0277 176.997 30.2272C178.816 31.4067 180.333 32.8868 181.549 34.6675C182.762 36.4681 183.62 38.5102 184.125 40.7937C184.633 43.0573 184.692 45.4556 184.301 47.9888ZM177.997 46.9538C178.219 45.5177 178.264 44.034 178.133 42.5025C178.002 40.9711 177.637 39.5669 177.038 38.2899C176.442 36.9929 175.581 35.8899 174.455 34.9808C173.332 34.0518 171.893 33.4518 170.138 33.1807C168.443 32.9188 166.93 33.0629 165.599 33.613C164.271 34.1431 163.128 34.9365 162.168 35.9931C161.212 37.0298 160.44 38.2584 159.853 39.679C159.266 41.0995 158.861 42.5278 158.64 43.9639C158.418 45.4 158.384 46.8753 158.538 48.3899C158.715 49.8876 159.112 51.2865 159.728 52.5865C160.347 53.8666 161.196 54.9781 162.276 55.9208C163.379 56.8468 164.738 57.4345 166.353 57.684C168.049 57.9459 169.562 57.8018 170.893 57.2518C172.246 56.6848 173.411 55.8846 174.388 54.8509C175.367 53.7974 176.158 52.5818 176.758 51.2042C177.362 49.8067 177.775 48.3899 177.997 46.9538Z" fill="white" stroke="white" stroke-width="20" stroke-linejoin="round"/>
<path d="M219.756 47.9888C219.367 50.5019 218.59 52.7609 217.422 54.7657C216.255 56.7705 214.822 58.4483 213.122 59.7991C211.423 61.15 209.528 62.1132 207.438 62.6889C205.344 63.2845 203.191 63.4114 200.977 63.0694C196.449 62.3701 192.939 60.1737 190.446 56.4804C189.227 54.7197 188.365 52.6975 187.86 50.414C187.355 48.1305 187.306 45.6723 187.713 43.0394C188.123 40.3866 188.913 38.0479 190.083 36.0231C191.257 33.9784 192.69 32.3006 194.383 30.9897C196.057 29.6757 197.925 28.7492 199.989 28.2104C202.054 27.6715 204.193 27.573 206.407 27.915C208.621 28.257 210.636 29.0277 212.452 30.2272C214.271 31.4067 215.788 32.8868 217.004 34.6675C218.217 36.4681 219.075 38.5102 219.58 40.7937C220.089 43.0573 220.147 45.4556 219.756 47.9888ZM213.452 46.9538C213.674 45.5177 213.719 44.034 213.588 42.5025C213.457 40.9711 213.092 39.5669 212.493 38.2899C211.897 36.9929 211.036 35.8899 209.91 34.9808C208.787 34.0518 207.349 33.4518 205.593 33.1807C203.898 32.9188 202.385 33.0629 201.054 33.613C199.727 34.1431 198.583 34.9365 197.623 35.9931C196.667 37.0298 195.895 38.2584 195.308 39.679C194.721 41.0995 194.317 42.5278 194.095 43.9639C193.873 45.4 193.839 46.8753 193.993 48.3899C194.17 49.8876 194.567 51.2865 195.183 52.5865C195.802 53.8666 196.651 54.9781 197.731 55.9208C198.834 56.8468 200.193 57.4345 201.808 57.684C203.504 57.9459 205.017 57.8018 206.348 57.2518C207.701 56.6848 208.866 55.8846 209.843 54.8509C210.823 53.7974 211.613 52.5818 212.214 51.2042C212.817 49.8067 213.23 48.3899 213.452 46.9538Z" fill="white" stroke="white" stroke-width="20" stroke-linejoin="round"/>
<path d="M254.756 47.9888C254.367 50.5019 253.59 52.7609 252.422 54.7657C251.255 56.7705 249.822 58.4483 248.122 59.7991C246.423 61.15 244.528 62.1132 242.438 62.6889C240.344 63.2845 238.191 63.4114 235.977 63.0694C231.449 62.3701 227.939 60.1737 225.446 56.4804C224.227 54.7197 223.365 52.6975 222.86 50.414C222.355 48.1305 222.306 45.6723 222.713 43.0394C223.123 40.3866 223.913 38.0479 225.083 36.0231C226.257 33.9784 227.69 32.3006 229.383 30.9897C231.057 29.6757 232.925 28.7492 234.989 28.2104C237.054 27.6715 239.193 27.573 241.407 27.915C243.621 28.257 245.636 29.0277 247.452 30.2272C249.271 31.4067 250.788 32.8868 252.004 34.6675C253.217 36.4681 254.075 38.5102 254.58 40.7937C255.089 43.0573 255.147 45.4556 254.756 47.9888ZM248.452 46.9538C248.674 45.5177 248.719 44.034 248.588 42.5025C248.457 40.9711 248.092 39.5669 247.493 38.2899C246.897 36.9929 246.036 35.8899 244.91 34.9808C243.787 34.0518 242.349 33.4518 240.593 33.1807C238.898 32.9188 237.385 33.0629 236.054 33.613C234.727 34.1431 233.583 34.9365 232.623 35.9931C231.667 37.0298 230.895 38.2584 230.308 39.679C229.721 41.0995 229.317 42.5278 229.095 43.9639C228.873 45.4 228.839 46.8753 228.993 48.3899C229.17 49.8876 229.567 51.2865 230.183 52.5865C230.802 53.8666 231.651 54.9781 232.731 55.9208C233.834 56.8468 235.193 57.4345 236.808 57.684C238.504 57.9459 240.017 57.8018 241.348 57.2518C242.701 56.6848 243.866 55.8846 244.843 54.8509C245.823 53.7974 246.613 52.5818 247.214 51.2042C247.817 49.8067 248.23 48.3899 248.452 46.9538Z" fill="white" stroke="white" stroke-width="20" stroke-linejoin="round"/>
<path d="M255.212 47.9888C254.824 50.5019 254.046 52.7609 252.878 54.7657C251.711 56.7705 250.278 58.4483 248.578 59.7991C246.879 61.15 244.984 62.1132 242.894 62.6889C240.8 63.2845 238.647 63.4114 236.433 63.0694C231.905 62.3701 228.395 60.1737 225.902 56.4804C224.683 54.7197 223.821 52.6975 223.316 50.414C222.811 48.1305 222.762 45.6723 223.169 43.0394C223.579 40.3866 224.369 38.0479 225.539 36.0231C226.713 33.9784 228.146 32.3006 229.839 30.9897C231.513 29.6757 233.381 28.7492 235.445 28.2104C237.51 27.6715 239.649 27.573 241.863 27.915C244.077 28.257 246.092 29.0277 247.908 30.2272C249.727 31.4067 251.244 32.8868 252.46 34.6675C253.673 36.4681 254.531 38.5102 255.036 40.7937C255.545 43.0573 255.603 45.4556 255.212 47.9888ZM248.908 46.9538C249.13 45.5177 249.175 44.034 249.044 42.5025C248.913 40.9711 248.548 39.5669 247.949 38.2899C247.353 36.9929 246.492 35.8899 245.366 34.9808C244.243 34.0518 242.805 33.4518 241.049 33.1807C239.354 32.9188 237.841 33.0629 236.51 33.613C235.183 34.1431 234.039 34.9365 233.079 35.9931C232.123 37.0298 231.351 38.2584 230.764 39.679C230.177 41.0995 229.773 42.5278 229.551 43.9639C229.329 45.4 229.295 46.8753 229.449 48.3899C229.626 49.8876 230.023 51.2865 230.639 52.5865C231.258 53.8666 232.107 54.9781 233.187 55.9208C234.29 56.8468 235.649 57.4345 237.265 57.684C238.96 57.9459 240.473 57.8018 241.804 57.2518C243.157 56.6848 244.322 55.8846 245.299 54.8509C246.279 53.7974 247.069 52.5818 247.67 51.2042C248.273 49.8067 248.686 48.3899 248.908 46.9538Z" fill="white" stroke="white" stroke-width="20" stroke-linejoin="round"/>
<path d="M127 15.013C101.8 11.813 92.8335 18.3463 91.5001 22.013L127.5 22.513L127 15.013Z" fill="white"/>
<path d="M31.0001 21.5128C29.0001 16.5128 25.6668 13.8462 24.5001 13.0129L20.5001 53.0128L40.5001 51.5128L39.0001 29.5129C40.5001 23.5129 46.3725 10.5342 43.5001 11.0129C37.5001 12.0129 34.5001 14.5129 31.0001 21.5128Z" fill="white"/>
<path d="M298.262 53.3958L301.652 10.4751L311.652 11.3181L303.672 53.9718L298.262 53.3958Z" fill="black"/>
<path d="M302.207 64.8968C303.071 64.2562 303.574 63.4026 303.715 62.3359C303.857 61.2692 303.595 60.3024 302.932 59.4357C302.268 58.5689 301.391 58.0632 300.301 57.9187C299.235 57.7772 298.279 58.0398 297.436 58.7067C296.592 59.3735 296.1 60.2403 295.958 61.307C295.817 62.3737 296.068 63.3273 296.711 64.1678C297.352 65.0315 298.206 65.5341 299.272 65.6756C300.362 65.8201 301.341 65.5605 302.207 64.8968Z" fill="black"/>
<path d="M259.435 61.197L256.991 16.8035L263.938 16.2736L264.517 34.6716C265.576 33.4158 266.717 32.4192 267.939 31.6819C269.16 30.9243 270.307 30.3416 271.381 29.9335C272.615 29.4785 273.844 29.1549 275.068 28.9629C279.625 28.7742 283.34 30.186 286.211 33.198C287.605 34.6553 288.73 36.457 289.586 38.6031C290.462 40.7283 291.007 43.1499 291.22 45.868C291.279 47.2997 291.32 48.7625 291.341 50.2564C291.383 51.7494 291.383 53.2139 291.341 54.6498C291.279 56.0865 291.174 57.4543 291.026 58.7532C290.898 60.0513 290.694 61.2212 290.414 62.263L283.498 62.0645C284.002 60.1044 284.338 58.2019 284.504 56.3568C284.69 54.511 284.803 52.86 284.844 51.404C284.854 49.7068 284.818 48.0923 284.734 46.5606C284.544 44.4071 284.095 42.5875 283.387 41.1019C282.7 39.6154 281.862 38.4078 280.874 37.4791C279.907 36.5697 278.84 35.9271 277.673 35.5512C276.526 35.1543 275.408 34.9784 274.319 35.0234C273.193 35.1508 272.047 35.5315 270.882 36.1656C269.893 36.6913 268.846 37.4921 267.739 38.5681C266.631 39.6239 265.622 41.0999 264.71 42.9959L265.359 60.8306L259.435 61.197Z" fill="black"/>
<path d="M184.301 47.9888C183.912 50.5019 183.135 52.7609 181.967 54.7657C180.8 56.7705 179.366 58.4483 177.667 59.7991C175.968 61.15 174.073 62.1132 171.983 62.6889C169.889 63.2845 167.736 63.4114 165.522 63.0694C160.994 62.3701 157.484 60.1737 154.991 56.4804C153.772 54.7197 152.91 52.6975 152.405 50.414C151.9 48.1305 151.851 45.6723 152.258 43.0394C152.667 40.3866 153.458 38.0479 154.628 36.0231C155.802 33.9784 157.235 32.3006 158.928 30.9897C160.602 29.6757 162.47 28.7492 164.534 28.2104C166.598 27.6715 168.738 27.573 170.952 27.915C173.166 28.257 175.181 29.0277 176.997 30.2272C178.816 31.4067 180.333 32.8868 181.549 34.6675C182.762 36.4681 183.62 38.5102 184.125 40.7937C184.633 43.0573 184.692 45.4556 184.301 47.9888ZM177.997 46.9538C178.219 45.5177 178.264 44.034 178.133 42.5025C178.002 40.9711 177.637 39.5669 177.038 38.2899C176.442 36.9929 175.581 35.8899 174.455 34.9808C173.332 34.0518 171.893 33.4518 170.138 33.1807C168.443 32.9188 166.93 33.0629 165.599 33.613C164.271 34.1431 163.128 34.9365 162.168 35.9931C161.212 37.0298 160.44 38.2584 159.853 39.679C159.266 41.0995 158.861 42.5278 158.64 43.9639C158.418 45.4 158.384 46.8753 158.538 48.3899C158.715 49.8876 159.112 51.2865 159.728 52.5865C160.347 53.8666 161.196 54.9781 162.276 55.9208C163.379 56.8468 164.738 57.4345 166.353 57.684C168.049 57.9459 169.562 57.8018 170.893 57.2518C172.246 56.6848 173.411 55.8846 174.388 54.8509C175.367 53.7974 176.158 52.5818 176.758 51.2042C177.362 49.8067 177.775 48.3899 177.997 46.9538Z" fill="black"/>
<path d="M219.756 47.9888C219.367 50.5019 218.59 52.7609 217.422 54.7657C216.255 56.7705 214.822 58.4483 213.122 59.7991C211.423 61.15 209.528 62.1132 207.438 62.6889C205.344 63.2845 203.191 63.4114 200.977 63.0694C196.449 62.3701 192.939 60.1737 190.446 56.4804C189.227 54.7197 188.365 52.6975 187.86 50.414C187.355 48.1305 187.306 45.6723 187.713 43.0394C188.123 40.3866 188.913 38.0479 190.083 36.0231C191.257 33.9784 192.69 32.3006 194.383 30.9897C196.057 29.6757 197.925 28.7492 199.989 28.2104C202.054 27.6715 204.193 27.573 206.407 27.915C208.621 28.257 210.636 29.0277 212.452 30.2272C214.271 31.4067 215.788 32.8868 217.004 34.6675C218.217 36.4681 219.075 38.5102 219.58 40.7937C220.089 43.0573 220.147 45.4556 219.756 47.9888ZM213.452 46.9538C213.674 45.5177 213.719 44.034 213.588 42.5025C213.457 40.9711 213.092 39.5669 212.493 38.2899C211.897 36.9929 211.036 35.8899 209.91 34.9808C208.787 34.0518 207.349 33.4518 205.593 33.1807C203.898 32.9188 202.385 33.0629 201.054 33.613C199.727 34.1431 198.583 34.9365 197.623 35.9931C196.667 37.0298 195.895 38.2584 195.308 39.679C194.721 41.0995 194.317 42.5278 194.095 43.9639C193.873 45.4 193.839 46.8753 193.993 48.3899C194.17 49.8876 194.567 51.2865 195.183 52.5865C195.802 53.8666 196.651 54.9781 197.731 55.9208C198.834 56.8468 200.193 57.4345 201.808 57.684C203.504 57.9459 205.017 57.8018 206.348 57.2518C207.701 56.6848 208.866 55.8846 209.843 54.8509C210.823 53.7974 211.613 52.5818 212.214 51.2042C212.817 49.8067 213.23 48.3899 213.452 46.9538Z" fill="black"/>
<path d="M254.756 47.9888C254.367 50.5019 253.59 52.7609 252.422 54.7657C251.255 56.7705 249.822 58.4483 248.122 59.7991C246.423 61.15 244.528 62.1132 242.438 62.6889C240.344 63.2845 238.191 63.4114 235.977 63.0694C231.449 62.3701 227.939 60.1737 225.446 56.4804C224.227 54.7197 223.365 52.6975 222.86 50.414C222.355 48.1305 222.306 45.6723 222.713 43.0394C223.123 40.3866 223.913 38.0479 225.083 36.0231C226.257 33.9784 227.69 32.3006 229.383 30.9897C231.057 29.6757 232.925 28.7492 234.989 28.2104C237.054 27.6715 239.193 27.573 241.407 27.915C243.621 28.257 245.636 29.0277 247.452 30.2272C249.271 31.4067 250.788 32.8868 252.004 34.6675C253.217 36.4681 254.075 38.5102 254.58 40.7937C255.089 43.0573 255.147 45.4556 254.756 47.9888ZM248.452 46.9538C248.674 45.5177 248.719 44.034 248.588 42.5025C248.457 40.9711 248.092 39.5669 247.493 38.2899C246.897 36.9929 246.036 35.8899 244.91 34.9808C243.787 34.0518 242.349 33.4518 240.593 33.1807C238.898 32.9188 237.385 33.0629 236.054 33.613C234.727 34.1431 233.583 34.9365 232.623 35.9931C231.667 37.0298 230.895 38.2584 230.308 39.679C229.721 41.0995 229.317 42.5278 229.095 43.9639C228.873 45.4 228.839 46.8753 228.993 48.3899C229.17 49.8876 229.567 51.2865 230.183 52.5865C230.802 53.8666 231.651 54.9781 232.731 55.9208C233.834 56.8468 235.193 57.4345 236.808 57.684C238.504 57.9459 240.017 57.8018 241.348 57.2518C242.701 56.6848 243.866 55.8846 244.843 54.8509C245.823 53.7974 246.613 52.5818 247.214 51.2042C247.817 49.8067 248.23 48.3899 248.452 46.9538Z" fill="black"/>
<path d="M255.212 47.9888C254.824 50.5019 254.046 52.7609 252.878 54.7657C251.711 56.7705 250.278 58.4483 248.578 59.7991C246.879 61.15 244.984 62.1132 242.894 62.6889C240.8 63.2845 238.647 63.4114 236.433 63.0694C231.905 62.3701 228.395 60.1737 225.902 56.4804C224.683 54.7197 223.821 52.6975 223.316 50.414C222.811 48.1305 222.762 45.6723 223.169 43.0394C223.579 40.3866 224.369 38.0479 225.539 36.0231C226.713 33.9784 228.146 32.3006 229.839 30.9897C231.513 29.6757 233.381 28.7492 235.445 28.2104C237.51 27.6715 239.649 27.573 241.863 27.915C244.077 28.257 246.092 29.0277 247.908 30.2272C249.727 31.4067 251.244 32.8868 252.46 34.6675C253.673 36.4681 254.531 38.5102 255.036 40.7937C255.545 43.0573 255.603 45.4556 255.212 47.9888ZM248.908 46.9538C249.13 45.5177 249.175 44.034 249.044 42.5025C248.913 40.9711 248.548 39.5669 247.949 38.2899C247.353 36.9929 246.492 35.8899 245.366 34.9808C244.243 34.0518 242.805 33.4518 241.049 33.1807C239.354 32.9188 237.841 33.0629 236.51 33.613C235.183 34.1431 234.039 34.9365 233.079 35.9931C232.123 37.0298 231.351 38.2584 230.764 39.679C230.177 41.0995 229.773 42.5278 229.551 43.9639C229.329 45.4 229.295 46.8753 229.449 48.3899C229.626 49.8876 230.023 51.2865 230.639 52.5865C231.258 53.8666 232.107 54.9781 233.187 55.9208C234.29 56.8468 235.649 57.4345 237.265 57.684C238.96 57.9459 240.473 57.8018 241.804 57.2518C243.157 56.6848 244.322 55.8846 245.299 54.8509C246.279 53.7974 247.069 52.5818 247.67 51.2042C248.273 49.8067 248.686 48.3899 248.908 46.9538Z" fill="black"/>
<path d="M130.545 40.9068L147.545 40.2098V46.5432L130.673 47.2098L130.545 40.9068Z" fill="black"/>
<path d="M118.032 30.1423L117.725 24.52L123.269 24.3309L125.201 56.7834C125.221 57.3869 125.214 58.0017 125.179 58.6277C125.144 59.2538 125.071 59.8728 124.959 60.4849C124.516 62.9898 123.486 65.3153 121.867 67.4616C121.047 68.5165 120.098 69.4758 119.019 70.3395C117.921 71.1856 116.682 71.8991 115.302 72.4799C113.923 73.0796 112.401 73.4996 110.734 73.7398C108.518 73.959 106.356 73.8627 104.251 73.4509C102.374 73.081 100.531 72.3404 98.7196 71.2291C96.9087 70.1177 95.509 68.4977 94.5205 66.3691L99.8161 63.6445C100.571 65.0888 101.577 66.1767 102.834 66.9081C104.112 67.657 105.389 68.113 106.666 68.276C108.059 68.4882 109.512 68.4508 111.025 68.1638C111.675 67.9894 112.276 67.7803 112.827 67.5367C113.397 67.2919 113.918 67.0218 114.391 66.7266C115.315 66.1186 116.095 65.4538 116.728 64.7323C117.382 64.0284 117.892 63.2959 118.259 62.535C118.441 62.1452 118.596 61.7665 118.724 61.3991C118.87 61.0305 118.998 60.6725 119.108 60.3252C119.309 59.6317 119.429 59.0002 119.467 58.4306C119.526 57.8787 119.546 57.4521 119.526 57.1509L119.287 53.4522C118.227 54.5983 117.104 55.5027 115.918 56.1654C114.75 56.8082 113.657 57.2948 112.639 57.6254C112.046 57.815 111.452 57.9763 110.856 58.1095C110.278 58.2414 109.698 58.3356 109.116 58.3923C104.674 58.68 100.908 57.4401 97.8174 54.6727C96.3331 53.3512 95.1204 51.7002 94.1793 49.7197C93.2571 47.738 92.7136 45.4766 92.5491 42.9355C92.3832 40.3756 92.6781 38.0694 93.4335 36.0168C94.2066 33.9442 95.2639 32.1746 96.6054 30.7079C97.9658 29.2399 99.5263 28.0898 101.287 27.2574C103.046 26.4063 104.849 25.921 106.693 25.8015C107.983 25.8692 109.291 26.068 110.616 26.398C111.75 26.6837 112.978 27.1145 114.301 27.6904C115.623 28.2663 116.867 29.0836 118.032 30.1423ZM108.765 52.9712C111.287 52.8079 113.502 51.8327 115.408 50.0459C116.3 49.2132 117.04 48.239 117.629 47.1234C118.217 45.989 118.592 44.7645 118.752 43.4499L118.513 39.7512C118.219 38.4281 117.698 37.2427 116.95 36.1949C116.2 35.1282 115.31 34.2313 114.28 33.5041C112.14 31.9794 109.781 31.3005 107.202 31.4675C105.847 31.5553 104.613 31.9187 103.502 32.5578C102.408 33.1768 101.478 34.0025 100.713 35.035C99.9673 36.0662 99.4023 37.2652 99.0183 38.6322C98.6343 39.9991 98.4923 41.4543 98.5923 42.9978C98.6922 44.5412 99.0196 45.9471 99.5743 47.2154C100.128 48.4649 100.858 49.5328 101.766 50.4191C102.654 51.2878 103.69 51.9579 104.874 52.4294C106.075 52.8808 107.372 53.0615 108.765 52.9712Z" fill="black"/>
<path d="M65.3106 62.389L58.7647 62.8177L59.1706 45.8284C59.1988 44.6776 59.2317 43.4463 59.2694 42.1344C59.3084 40.8023 59.3425 39.5508 59.3719 38.3799C59.4024 37.1889 59.428 36.2502 59.4487 35.5641C59.5374 32.7186 59.6042 30.5795 59.6492 29.1466L66.5465 29.4364L66.1487 38.1469C66.882 37.0381 67.7017 36.0053 68.6079 35.0484C69.5153 34.0714 70.486 33.2194 71.52 32.4925C72.554 31.7656 73.6394 31.1934 74.7763 30.776C75.9333 30.3597 77.1287 30.1479 78.3624 30.1405C79.9197 30.1322 81.2517 30.343 82.3583 30.7729C83.4649 31.2028 84.4019 31.764 85.1693 32.4568C85.938 33.1293 86.5578 33.9244 87.0288 34.8421C87.5187 35.7811 87.8777 36.7123 88.1057 37.6357C88.3527 38.5805 88.5084 39.5299 88.5728 40.484C88.6586 41.4191 88.6989 42.2707 88.6935 43.0387C88.6079 46.5111 88.4304 49.9982 88.1611 53.5001C87.8918 57.002 87.6045 60.6343 87.2994 64.3969L81.117 63.8162C81.4715 60.5822 81.8058 57.347 82.1199 54.1106C82.4543 50.8754 82.6393 47.601 82.675 44.2873C82.717 43.5822 82.6845 42.7715 82.5773 41.8553C82.4714 40.919 82.2339 39.9849 81.8648 39.0531C81.5998 38.4106 81.24 37.8331 80.7853 37.3208C80.3294 36.8286 79.7561 36.4406 79.0654 36.1568C78.3948 35.8743 77.5919 35.7759 76.6568 35.8617C75.0508 36.0086 73.37 37.071 71.6145 39.0488C70.2 40.6159 68.6367 42.8688 66.9247 45.8074C66.134 47.1647 65.7238 48.7066 65.6733 50.2766L65.5007 55.6374C65.4632 56.6056 65.4329 57.4529 65.4098 58.1794C65.3868 58.9059 65.3703 59.5216 65.3604 60.0264C65.3311 61.1973 65.3145 61.9848 65.3106 62.389Z" fill="black"/>
<path d="M44.7428 32.1998L50.9671 31.431L51.9126 46.4807C52.155 50.6208 52.364 53.8707 52.5397 56.2304C52.7184 59.1151 52.8762 61.3818 53.013 63.0303L46.8282 63.5437C46.7548 62.4152 46.6727 61.1823 46.582 59.8451C46.5096 58.4854 46.4194 57.0326 46.3113 55.4867C46.1281 52.7915 45.9173 49.5207 45.679 45.6744L44.7428 32.1998Z" fill="black"/>
<path d="M50.4567 27.6789C51.2514 26.7624 51.6004 25.7208 51.5035 24.5543C51.405 23.3676 50.8883 22.3878 49.9533 21.6148C49.0368 20.8201 47.9852 20.472 46.7985 20.5705C45.6319 20.6673 44.6622 21.1832 43.8892 22.1182C43.1347 23.0314 42.8067 24.0813 42.9052 25.268C43.002 26.4346 43.4978 27.406 44.3926 28.1823C45.3058 28.9368 46.3457 29.2657 47.5122 29.1688C48.6989 29.0703 49.6804 28.5737 50.4567 27.6789Z" fill="black"/>
<path d="M16.2114 58.5912L40.7811 57.2044L41.0574 63.7178L9.99996 64.8611L12.4166 21.0258L18.6556 21.0267L16.2114 58.5912Z" fill="black"/>
</svg>
