<svg width="357" height="84" viewBox="0 0 357 84" fill="none" xmlns="http://www.w3.org/2000/svg">
<path d="M184.3 47.9888C183.912 50.5019 183.134 52.7609 181.967 54.7657C180.799 56.7705 179.366 58.4483 177.666 59.7991C175.967 61.15 174.072 62.1132 171.982 62.6889C169.888 63.2845 167.735 63.4114 165.521 63.0694C160.993 62.3701 157.483 60.1737 154.99 56.4804C153.771 54.7197 152.909 52.6975 152.404 50.414C151.899 48.1305 151.85 45.6723 152.257 43.0394C152.667 40.3866 153.457 38.0479 154.627 36.0231C155.801 33.9784 157.234 32.3006 158.927 30.9897C160.601 29.6757 162.469 28.7492 164.534 28.2104C166.598 27.6715 168.737 27.573 170.951 27.915C173.165 28.257 175.18 29.0277 176.996 30.2272C178.815 31.4067 180.332 32.8868 181.548 34.6675C182.761 36.4681 183.62 38.5102 184.125 40.7937C184.633 43.0573 184.691 45.4556 184.3 47.9888ZM177.996 46.9538C178.218 45.5177 178.263 44.034 178.132 42.5025C178.001 40.9711 177.636 39.5669 177.037 38.2899C176.441 36.9929 175.58 35.8899 174.454 34.9808C173.332 34.0518 171.893 33.4518 170.137 33.1807C168.442 32.9188 166.929 33.0629 165.598 33.613C164.271 34.1431 163.127 34.9365 162.167 35.9931C161.211 37.0298 160.439 38.2584 159.852 39.679C159.265 41.0995 158.861 42.5278 158.639 43.9639C158.417 45.4 158.383 46.8753 158.537 48.3899C158.714 49.8876 159.111 51.2865 159.727 52.5865C160.346 53.8666 161.196 54.9781 162.275 55.9208C163.378 56.8468 164.737 57.4345 166.353 57.684C168.048 57.9459 169.561 57.8018 170.892 57.2518C172.246 56.6848 173.411 55.8846 174.387 54.8509C175.367 53.7974 176.157 52.5818 176.758 51.2042C177.362 49.8067 177.774 48.3899 177.996 46.9538Z" fill="white" stroke="white" stroke-width="20" stroke-linejoin="round"/>
<path d="M130.545 40.8939L147.545 40.1969V46.5302L130.673 47.1969L130.545 40.8939Z" fill="white" stroke="white" stroke-width="20" stroke-linejoin="round"/>
<path d="M118.032 30.1293L117.725 24.507L123.269 24.318L125.201 56.7704C125.221 57.374 125.214 57.9888 125.179 58.6148C125.144 59.2408 125.071 59.8599 124.959 60.472C124.516 62.9768 123.486 65.3024 121.867 67.4486C121.047 68.5035 120.098 69.4629 119.019 70.3266C117.921 71.1727 116.682 71.8862 115.302 72.467C113.923 73.0667 112.401 73.4866 110.734 73.7269C108.518 73.946 106.356 73.8497 104.251 73.438C102.374 73.0681 100.531 72.3274 98.7196 71.2161C96.9087 70.1048 95.509 68.4848 94.5205 66.3562L99.8161 63.6316C100.571 65.0759 101.577 66.1638 102.834 66.8951C104.112 67.6441 105.389 68.1001 106.666 68.2631C108.059 68.4753 109.512 68.4379 111.025 68.1509C111.675 67.9764 112.276 67.7674 112.827 67.5238C113.397 67.2789 113.918 67.0089 114.391 66.7137C115.315 66.1056 116.095 65.4409 116.728 64.7193C117.382 64.0154 117.892 63.283 118.259 62.5221C118.441 62.1322 118.596 61.7536 118.724 61.3862C118.87 61.0176 118.998 60.6596 119.108 60.3123C119.309 59.6188 119.429 58.9873 119.467 58.4177C119.526 57.8657 119.546 57.4392 119.526 57.138L119.287 53.4393C118.227 54.5853 117.104 55.4897 115.918 56.1525C114.75 56.7952 113.657 57.2819 112.639 57.6124C112.046 57.802 111.452 57.9634 110.856 58.0965C110.278 58.2284 109.698 58.3227 109.116 58.3793C104.674 58.667 100.908 57.4272 97.8174 54.6597C96.3331 53.3382 95.1204 51.6872 94.1793 49.7068C93.2571 47.7251 92.7136 45.4637 92.5491 42.9226C92.3832 40.3627 92.6781 38.0564 93.4335 36.0039C94.2066 33.9313 95.2639 32.1616 96.6054 30.6949C97.9658 29.227 99.5263 28.0768 101.287 27.2445C103.046 26.3934 104.849 25.9081 106.693 25.7886C107.983 25.8563 109.291 26.0551 110.616 26.3851C111.75 26.6708 112.978 27.1016 114.301 27.6775C115.623 28.2534 116.867 29.0707 118.032 30.1293ZM108.765 52.9583C111.287 52.7949 113.502 51.8198 115.408 50.0329C116.3 49.2002 117.04 48.2261 117.629 47.1105C118.217 45.9761 118.592 44.7516 118.752 43.4369L118.513 39.7382C118.219 38.4152 117.698 37.2298 116.95 36.1819C116.2 35.1153 115.31 34.2183 114.28 33.4912C112.14 31.9664 109.781 31.2875 107.202 31.4546C105.847 31.5424 104.613 31.9058 103.502 32.5448C102.408 33.1639 101.478 33.9896 100.713 35.022C99.9673 36.0532 99.4023 37.2523 99.0183 38.6192C98.6343 39.9861 98.4923 41.4413 98.5923 42.9848C98.6922 44.5283 99.0196 45.9342 99.5743 47.2025C100.128 48.452 100.858 49.5199 101.766 50.4062C102.654 51.2749 103.69 51.9449 104.874 52.4164C106.075 52.8679 107.372 53.0485 108.765 52.9583Z" fill="white" stroke="white" stroke-width="20" stroke-linejoin="round"/>
<path d="M65.3106 61.376L58.7647 61.8048L59.1706 44.8154C59.1988 43.6647 59.2317 42.4334 59.2694 41.1214C59.3084 39.7894 59.3425 38.5379 59.3719 37.367C59.4024 36.1759 59.428 35.2373 59.4487 34.5511C59.5374 31.7056 59.6042 29.5665 59.6492 28.1337L66.5465 28.4234L66.1487 37.1339C66.882 36.0252 67.7017 34.9924 68.6079 34.0355C69.5153 33.0584 70.486 32.2065 71.52 31.4796C72.554 30.7527 73.6394 30.1805 74.7763 29.763C75.9333 29.3467 77.1287 29.1349 78.3624 29.1276C79.9197 29.1193 81.2517 29.3301 82.3583 29.7599C83.4649 30.1898 84.4019 30.7511 85.1693 31.4438C85.938 32.1164 86.5578 32.9115 87.0288 33.8292C87.5187 34.7682 87.8777 35.6994 88.1057 36.6228C88.3527 37.5675 88.5084 38.517 88.5728 39.471C88.6586 40.4062 88.6989 41.2577 88.6935 42.0257C88.6079 45.4981 88.4304 48.9853 88.1611 52.4872C87.8918 55.9891 87.6045 59.6213 87.2994 63.3839L81.117 62.8032C81.4715 59.5692 81.8058 56.334 82.1199 53.0976C82.4543 49.8624 82.6393 46.588 82.675 43.2744C82.717 42.5693 82.6845 41.7586 82.5773 40.8424C82.4714 39.9061 82.2339 38.972 81.8648 38.0402C81.5998 37.3976 81.24 36.8202 80.7853 36.3078C80.3294 35.8157 79.7561 35.4277 79.0654 35.1439C78.3948 34.8613 77.5919 34.7629 76.6568 34.8487C75.0508 34.9956 73.37 36.058 71.6145 38.0359C70.2 39.603 68.6367 41.8558 66.9247 44.7945C66.134 46.1517 65.7238 47.6937 65.6733 49.2636L65.5007 54.6244C65.4632 55.5926 65.4329 56.44 65.4098 57.1665C65.3868 57.893 65.3703 58.5086 65.3604 59.0135C65.3311 60.1844 65.3145 60.9719 65.3106 61.376Z" fill="white" stroke="white" stroke-width="20" stroke-linejoin="round"/>
<path d="M44.7428 32.1868L50.9671 31.418L51.9126 46.4677C52.155 50.6078 52.364 53.8578 52.5397 56.2175C52.7184 59.1022 52.8762 61.3688 53.013 63.0174L46.8282 63.5308C46.7548 62.4023 46.6727 61.1694 46.582 59.8322C46.5096 58.4725 46.4194 57.0197 46.3113 55.4738C46.1281 52.7785 45.9173 49.5078 45.679 45.6615L44.7428 32.1868Z" fill="white" stroke="white" stroke-width="20" stroke-linejoin="round"/>
<ellipse cx="336" cy="61.5" rx="8" ry="9.5" fill="white"/>
<path d="M50.4567 27.666C51.2514 26.7494 51.6004 25.7079 51.5035 24.5413C51.405 23.3547 50.8883 22.3748 49.9533 21.6019C49.0368 20.8071 47.9852 20.459 46.7985 20.5575C45.6319 20.6544 44.6622 21.1703 43.8892 22.1053C43.1347 23.0185 42.8067 24.0684 42.9052 25.2551C43.002 26.4216 43.4978 27.3931 44.3926 28.1694C45.3058 28.9239 46.3457 29.2527 47.5122 29.1559C48.6989 29.0574 49.6804 28.5607 50.4567 27.666Z" fill="white" stroke="white" stroke-width="20" stroke-linejoin="round"/>
<path d="M16.2114 58.5783L40.7811 57.1915L41.0574 63.7048L9.99996 64.8481L12.4166 21.0129L18.6556 21.0137L16.2114 58.5783Z" fill="white" stroke="white" stroke-width="20" stroke-linejoin="round"/>
<ellipse cx="45.0001" cy="22.5" rx="7" ry="8.5" fill="white"/>
<rect x="10.0001" y="68" width="85" height="6" fill="white"/>
<ellipse cx="75.3126" cy="27.2959" rx="19.1628" ry="12.7425" transform="rotate(11.4602 75.3126 27.2959)" fill="white"/>
<path d="M184.3 47.9888C183.912 50.5019 183.134 52.7609 181.967 54.7657C180.8 56.7705 179.366 58.4483 177.667 59.7991C175.967 61.15 174.073 62.1132 171.982 62.6889C169.889 63.2845 167.735 63.4114 165.521 63.0694C160.994 62.3701 157.483 60.1737 154.991 56.4804C153.772 54.7197 152.91 52.6975 152.405 50.414C151.9 48.1305 151.851 45.6723 152.257 43.0394C152.667 40.3866 153.457 38.0479 154.628 36.0231C155.801 33.9784 157.235 32.3006 158.928 30.9897C160.601 29.6757 162.47 28.7492 164.534 28.2104C166.598 27.6715 168.737 27.573 170.951 27.915C173.165 28.257 175.18 29.0277 176.996 30.2272C178.815 31.4067 180.333 32.8868 181.549 34.6675C182.761 36.4681 183.62 38.5102 184.125 40.7937C184.633 43.0573 184.692 45.4556 184.3 47.9888ZM177.997 46.9538C178.219 45.5177 178.264 44.034 178.133 42.5025C178.002 40.9711 177.637 39.5669 177.038 38.2899C176.441 36.9929 175.58 35.8899 174.455 34.9808C173.332 34.0518 171.893 33.4518 170.138 33.1807C168.443 32.9188 166.93 33.0629 165.599 33.613C164.271 34.1431 163.128 34.9365 162.168 35.9931C161.211 37.0298 160.44 38.2584 159.853 39.679C159.266 41.0995 158.861 42.5278 158.639 43.9639C158.418 45.4 158.384 46.8753 158.538 48.3899C158.715 49.8876 159.111 51.2865 159.727 52.5865C160.347 53.8666 161.196 54.9781 162.276 55.9208C163.378 56.8468 164.738 57.4345 166.353 57.684C168.049 57.9459 169.562 57.8018 170.892 57.2518C172.246 56.6848 173.411 55.8846 174.388 54.8509C175.367 53.7974 176.157 52.5818 176.758 51.2042C177.362 49.8067 177.775 48.3899 177.997 46.9538Z" fill="white"/>
<path d="M333.262 53.3958L336.652 10.4751L346.652 11.3181L338.672 53.9718L333.262 53.3958Z" fill="white" stroke="white" stroke-width="20" stroke-linejoin="round"/>
<path d="M337.207 64.8968C338.071 64.2562 338.574 63.4026 338.715 62.3359C338.857 61.2692 338.595 60.3024 337.932 59.4357C337.268 58.5689 336.391 58.0632 335.301 57.9187C334.235 57.7772 333.279 58.0398 332.436 58.7067C331.592 59.3735 331.1 60.2403 330.958 61.307C330.817 62.3737 331.068 63.3273 331.711 64.1678C332.352 65.0315 333.206 65.5341 334.272 65.6756C335.362 65.8201 336.341 65.5605 337.207 64.8968Z" fill="white" stroke="white" stroke-width="20" stroke-linejoin="round"/>
<path d="M294.435 61.197L291.991 16.8035L298.938 16.2736L299.517 34.6716C300.576 33.4158 301.717 32.4192 302.939 31.6819C304.16 30.9243 305.307 30.3416 306.381 29.9335C307.615 29.4785 308.844 29.1549 310.068 28.9629C314.625 28.7742 318.34 30.186 321.211 33.198C322.605 34.6553 323.73 36.457 324.586 38.6031C325.462 40.7283 326.007 43.1499 326.22 45.868C326.279 47.2997 326.32 48.7625 326.341 50.2564C326.383 51.7494 326.383 53.2139 326.341 54.6498C326.279 56.0865 326.174 57.4543 326.026 58.7532C325.898 60.0513 325.694 61.2212 325.414 62.263L318.498 62.0645C319.002 60.1044 319.338 58.2019 319.504 56.3568C319.69 54.511 319.803 52.86 319.844 51.404C319.854 49.7068 319.818 48.0923 319.734 46.5606C319.544 44.4071 319.095 42.5875 318.387 41.1019C317.7 39.6154 316.862 38.4078 315.874 37.4791C314.907 36.5697 313.84 35.9271 312.673 35.5512C311.526 35.1543 310.408 34.9784 309.319 35.0234C308.193 35.1508 307.047 35.5315 305.882 36.1656C304.893 36.6913 303.846 37.4921 302.739 38.5681C301.631 39.6239 300.622 41.0999 299.71 42.9959L300.359 60.8306L294.435 61.197Z" fill="white" stroke="white" stroke-width="20" stroke-linejoin="round"/>
<path d="M184.301 47.9888C183.912 50.5019 183.135 52.7609 181.967 54.7657C180.8 56.7705 179.366 58.4483 177.667 59.7991C175.968 61.15 174.073 62.1132 171.983 62.6889C169.889 63.2845 167.736 63.4114 165.522 63.0694C160.994 62.3701 157.484 60.1737 154.991 56.4804C153.772 54.7197 152.91 52.6975 152.405 50.414C151.9 48.1305 151.851 45.6723 152.258 43.0394C152.667 40.3866 153.458 38.0479 154.628 36.0231C155.802 33.9784 157.235 32.3006 158.928 30.9897C160.602 29.6757 162.47 28.7492 164.534 28.2104C166.598 27.6715 168.738 27.573 170.952 27.915C173.166 28.257 175.181 29.0277 176.997 30.2272C178.816 31.4067 180.333 32.8868 181.549 34.6675C182.762 36.4681 183.62 38.5102 184.125 40.7937C184.633 43.0573 184.692 45.4556 184.301 47.9888ZM177.997 46.9538C178.219 45.5177 178.264 44.034 178.133 42.5025C178.002 40.9711 177.637 39.5669 177.038 38.2899C176.442 36.9929 175.581 35.8899 174.455 34.9808C173.332 34.0518 171.893 33.4518 170.138 33.1807C168.443 32.9188 166.93 33.0629 165.599 33.613C164.271 34.1431 163.128 34.9365 162.168 35.9931C161.212 37.0298 160.44 38.2584 159.853 39.679C159.266 41.0995 158.861 42.5278 158.64 43.9639C158.418 45.4 158.384 46.8753 158.538 48.3899C158.715 49.8876 159.112 51.2865 159.728 52.5865C160.347 53.8666 161.196 54.9781 162.276 55.9208C163.379 56.8468 164.738 57.4345 166.353 57.684C168.049 57.9459 169.562 57.8018 170.893 57.2518C172.246 56.6848 173.411 55.8846 174.388 54.8509C175.367 53.7974 176.158 52.5818 176.758 51.2042C177.362 49.8067 177.775 48.3899 177.997 46.9538Z" fill="white" stroke="white" stroke-width="20" stroke-linejoin="round"/>
<path d="M219.756 47.9888C219.367 50.5019 218.59 52.7609 217.422 54.7657C216.255 56.7705 214.822 58.4483 213.122 59.7991C211.423 61.15 209.528 62.1132 207.438 62.6889C205.344 63.2845 203.191 63.4114 200.977 63.0694C196.449 62.3701 192.939 60.1737 190.446 56.4804C189.227 54.7197 188.365 52.6975 187.86 50.414C187.355 48.1305 187.306 45.6723 187.713 43.0394C188.123 40.3866 188.913 38.0479 190.083 36.0231C191.257 33.9784 192.69 32.3006 194.383 30.9897C196.057 29.6757 197.925 28.7492 199.989 28.2104C202.054 27.6715 204.193 27.573 206.407 27.915C208.621 28.257 210.636 29.0277 212.452 30.2272C214.271 31.4067 215.788 32.8868 217.004 34.6675C218.217 36.4681 219.075 38.5102 219.58 40.7937C220.089 43.0573 220.147 45.4556 219.756 47.9888ZM213.452 46.9538C213.674 45.5177 213.719 44.034 213.588 42.5025C213.457 40.9711 213.092 39.5669 212.493 38.2899C211.897 36.9929 211.036 35.8899 209.91 34.9808C208.787 34.0518 207.349 33.4518 205.593 33.1807C203.898 32.9188 202.385 33.0629 201.054 33.613C199.727 34.1431 198.583 34.9365 197.623 35.9931C196.667 37.0298 195.895 38.2584 195.308 39.679C194.721 41.0995 194.317 42.5278 194.095 43.9639C193.873 45.4 193.839 46.8753 193.993 48.3899C194.17 49.8876 194.567 51.2865 195.183 52.5865C195.802 53.8666 196.651 54.9781 197.731 55.9208C198.834 56.8468 200.193 57.4345 201.808 57.684C203.504 57.9459 205.017 57.8018 206.348 57.2518C207.701 56.6848 208.866 55.8846 209.843 54.8509C210.823 53.7974 211.613 52.5818 212.214 51.2042C212.817 49.8067 213.23 48.3899 213.452 46.9538Z" fill="white" stroke="white" stroke-width="20" stroke-linejoin="round"/>
<path d="M254.756 47.9888C254.367 50.5019 253.59 52.7609 252.422 54.7657C251.255 56.7705 249.822 58.4483 248.122 59.7991C246.423 61.15 244.528 62.1132 242.438 62.6889C240.344 63.2845 238.191 63.4114 235.977 63.0694C231.449 62.3701 227.939 60.1737 225.446 56.4804C224.227 54.7197 223.365 52.6975 222.86 50.414C222.355 48.1305 222.306 45.6723 222.713 43.0394C223.123 40.3866 223.913 38.0479 225.083 36.0231C226.257 33.9784 227.69 32.3006 229.383 30.9897C231.057 29.6757 232.925 28.7492 234.989 28.2104C237.054 27.6715 239.193 27.573 241.407 27.915C243.621 28.257 245.636 29.0277 247.452 30.2272C249.271 31.4067 250.788 32.8868 252.004 34.6675C253.217 36.4681 254.075 38.5102 254.58 40.7937C255.089 43.0573 255.147 45.4556 254.756 47.9888ZM248.452 46.9538C248.674 45.5177 248.719 44.034 248.588 42.5025C248.457 40.9711 248.092 39.5669 247.493 38.2899C246.897 36.9929 246.036 35.8899 244.91 34.9808C243.787 34.0518 242.349 33.4518 240.593 33.1807C238.898 32.9188 237.385 33.0629 236.054 33.613C234.727 34.1431 233.583 34.9365 232.623 35.9931C231.667 37.0298 230.895 38.2584 230.308 39.679C229.721 41.0995 229.317 42.5278 229.095 43.9639C228.873 45.4 228.839 46.8753 228.993 48.3899C229.17 49.8876 229.567 51.2865 230.183 52.5865C230.802 53.8666 231.651 54.9781 232.731 55.9208C233.834 56.8468 235.193 57.4345 236.808 57.684C238.504 57.9459 240.017 57.8018 241.348 57.2518C242.701 56.6848 243.866 55.8846 244.843 54.8509C245.823 53.7974 246.613 52.5818 247.214 51.2042C247.817 49.8067 248.23 48.3899 248.452 46.9538Z" fill="white" stroke="white" stroke-width="20" stroke-linejoin="round"/>
<path d="M290.212 47.9888C289.824 50.5019 289.046 52.7609 287.878 54.7657C286.711 56.7705 285.278 58.4483 283.578 59.7991C281.879 61.15 279.984 62.1132 277.894 62.6889C275.8 63.2845 273.647 63.4114 271.433 63.0694C266.905 62.3701 263.395 60.1737 260.902 56.4804C259.683 54.7197 258.821 52.6975 258.316 50.414C257.811 48.1305 257.762 45.6723 258.169 43.0394C258.579 40.3866 259.369 38.0479 260.539 36.0231C261.713 33.9784 263.146 32.3006 264.839 30.9897C266.513 29.6757 268.381 28.7492 270.445 28.2104C272.51 27.6715 274.649 27.573 276.863 27.915C279.077 28.257 281.092 29.0277 282.908 30.2272C284.727 31.4067 286.244 32.8868 287.46 34.6675C288.673 36.4681 289.531 38.5102 290.036 40.7937C290.545 43.0573 290.603 45.4556 290.212 47.9888ZM283.908 46.9538C284.13 45.5177 284.175 44.034 284.044 42.5025C283.913 40.9711 283.548 39.5669 282.949 38.2899C282.353 36.9929 281.492 35.8899 280.366 34.9808C279.243 34.0518 277.805 33.4518 276.049 33.1807C274.354 32.9188 272.841 33.0629 271.51 33.613C270.183 34.1431 269.039 34.9365 268.079 35.9931C267.123 37.0298 266.351 38.2584 265.764 39.679C265.177 41.0995 264.773 42.5278 264.551 43.9639C264.329 45.4 264.295 46.8753 264.449 48.3899C264.626 49.8876 265.023 51.2865 265.639 52.5865C266.258 53.8666 267.107 54.9781 268.187 55.9208C269.29 56.8468 270.649 57.4345 272.265 57.684C273.96 57.9459 275.473 57.8018 276.804 57.2518C278.157 56.6848 279.322 55.8846 280.299 54.8509C281.279 53.7974 282.069 52.5818 282.67 51.2042C283.273 49.8067 283.686 48.3899 283.908 46.9538Z" fill="white" stroke="white" stroke-width="20" stroke-linejoin="round"/>
<path d="M127 15.0001C101.8 11.8001 92.8335 18.3334 91.5001 22.0001L127.5 22.5001L127 15.0001Z" fill="white"/>
<path d="M31.0001 21.4998C29.0001 16.4998 25.6668 13.8333 24.5001 12.9999L20.5001 52.9999L40.5001 51.4999L39.0001 29.4999C40.5001 23.4999 46.3725 10.5212 43.5001 11C37.5001 11.9999 34.5001 14.4999 31.0001 21.4998Z" fill="white"/>
<path d="M333.262 53.3958L336.652 10.4751L346.652 11.3181L338.672 53.9718L333.262 53.3958Z" fill="black"/>
<path d="M337.207 64.8968C338.071 64.2562 338.574 63.4026 338.715 62.3359C338.857 61.2692 338.595 60.3024 337.932 59.4357C337.268 58.5689 336.391 58.0632 335.301 57.9187C334.235 57.7772 333.279 58.0398 332.436 58.7067C331.592 59.3735 331.1 60.2403 330.958 61.307C330.817 62.3737 331.068 63.3273 331.711 64.1678C332.352 65.0315 333.206 65.5341 334.272 65.6756C335.362 65.8201 336.341 65.5605 337.207 64.8968Z" fill="black"/>
<path d="M294.435 61.197L291.991 16.8035L298.938 16.2736L299.517 34.6716C300.576 33.4158 301.717 32.4192 302.939 31.6819C304.16 30.9243 305.307 30.3416 306.381 29.9335C307.615 29.4785 308.844 29.1549 310.068 28.9629C314.625 28.7742 318.34 30.186 321.211 33.198C322.605 34.6553 323.73 36.457 324.586 38.6031C325.462 40.7283 326.007 43.1499 326.22 45.868C326.279 47.2997 326.32 48.7625 326.341 50.2564C326.383 51.7494 326.383 53.2139 326.341 54.6498C326.279 56.0865 326.174 57.4543 326.026 58.7532C325.898 60.0513 325.694 61.2212 325.414 62.263L318.498 62.0645C319.002 60.1044 319.338 58.2019 319.504 56.3568C319.69 54.511 319.803 52.86 319.844 51.404C319.854 49.7068 319.818 48.0923 319.734 46.5606C319.544 44.4071 319.095 42.5875 318.387 41.1019C317.7 39.6154 316.862 38.4078 315.874 37.4791C314.907 36.5697 313.84 35.9271 312.673 35.5512C311.526 35.1543 310.408 34.9784 309.319 35.0234C308.193 35.1508 307.047 35.5315 305.882 36.1656C304.893 36.6913 303.846 37.4921 302.739 38.5681C301.631 39.6239 300.622 41.0999 299.71 42.9959L300.359 60.8306L294.435 61.197Z" fill="black"/>
<path d="M184.301 47.9888C183.912 50.5019 183.135 52.7609 181.967 54.7657C180.8 56.7705 179.366 58.4483 177.667 59.7991C175.968 61.15 174.073 62.1132 171.983 62.6889C169.889 63.2845 167.736 63.4114 165.522 63.0694C160.994 62.3701 157.484 60.1737 154.991 56.4804C153.772 54.7197 152.91 52.6975 152.405 50.414C151.9 48.1305 151.851 45.6723 152.258 43.0394C152.667 40.3866 153.458 38.0479 154.628 36.0231C155.802 33.9784 157.235 32.3006 158.928 30.9897C160.602 29.6757 162.47 28.7492 164.534 28.2104C166.598 27.6715 168.738 27.573 170.952 27.915C173.166 28.257 175.181 29.0277 176.997 30.2272C178.816 31.4067 180.333 32.8868 181.549 34.6675C182.762 36.4681 183.62 38.5102 184.125 40.7937C184.633 43.0573 184.692 45.4556 184.301 47.9888ZM177.997 46.9538C178.219 45.5177 178.264 44.034 178.133 42.5025C178.002 40.9711 177.637 39.5669 177.038 38.2899C176.442 36.9929 175.581 35.8899 174.455 34.9808C173.332 34.0518 171.893 33.4518 170.138 33.1807C168.443 32.9188 166.93 33.0629 165.599 33.613C164.271 34.1431 163.128 34.9365 162.168 35.9931C161.212 37.0298 160.44 38.2584 159.853 39.679C159.266 41.0995 158.861 42.5278 158.64 43.9639C158.418 45.4 158.384 46.8753 158.538 48.3899C158.715 49.8876 159.112 51.2865 159.728 52.5865C160.347 53.8666 161.196 54.9781 162.276 55.9208C163.379 56.8468 164.738 57.4345 166.353 57.684C168.049 57.9459 169.562 57.8018 170.893 57.2518C172.246 56.6848 173.411 55.8846 174.388 54.8509C175.367 53.7974 176.158 52.5818 176.758 51.2042C177.362 49.8067 177.775 48.3899 177.997 46.9538Z" fill="black"/>
<path d="M219.756 47.9888C219.367 50.5019 218.59 52.7609 217.422 54.7657C216.255 56.7705 214.822 58.4483 213.122 59.7991C211.423 61.15 209.528 62.1132 207.438 62.6889C205.344 63.2845 203.191 63.4114 200.977 63.0694C196.449 62.3701 192.939 60.1737 190.446 56.4804C189.227 54.7197 188.365 52.6975 187.86 50.414C187.355 48.1305 187.306 45.6723 187.713 43.0394C188.123 40.3866 188.913 38.0479 190.083 36.0231C191.257 33.9784 192.69 32.3006 194.383 30.9897C196.057 29.6757 197.925 28.7492 199.989 28.2104C202.054 27.6715 204.193 27.573 206.407 27.915C208.621 28.257 210.636 29.0277 212.452 30.2272C214.271 31.4067 215.788 32.8868 217.004 34.6675C218.217 36.4681 219.075 38.5102 219.58 40.7937C220.089 43.0573 220.147 45.4556 219.756 47.9888ZM213.452 46.9538C213.674 45.5177 213.719 44.034 213.588 42.5025C213.457 40.9711 213.092 39.5669 212.493 38.2899C211.897 36.9929 211.036 35.8899 209.91 34.9808C208.787 34.0518 207.349 33.4518 205.593 33.1807C203.898 32.9188 202.385 33.0629 201.054 33.613C199.727 34.1431 198.583 34.9365 197.623 35.9931C196.667 37.0298 195.895 38.2584 195.308 39.679C194.721 41.0995 194.317 42.5278 194.095 43.9639C193.873 45.4 193.839 46.8753 193.993 48.3899C194.17 49.8876 194.567 51.2865 195.183 52.5865C195.802 53.8666 196.651 54.9781 197.731 55.9208C198.834 56.8468 200.193 57.4345 201.808 57.684C203.504 57.9459 205.017 57.8018 206.348 57.2518C207.701 56.6848 208.866 55.8846 209.843 54.8509C210.823 53.7974 211.613 52.5818 212.214 51.2042C212.817 49.8067 213.23 48.3899 213.452 46.9538Z" fill="black"/>
<path d="M254.756 47.9888C254.367 50.5019 253.59 52.7609 252.422 54.7657C251.255 56.7705 249.822 58.4483 248.122 59.7991C246.423 61.15 244.528 62.1132 242.438 62.6889C240.344 63.2845 238.191 63.4114 235.977 63.0694C231.449 62.3701 227.939 60.1737 225.446 56.4804C224.227 54.7197 223.365 52.6975 222.86 50.414C222.355 48.1305 222.306 45.6723 222.713 43.0394C223.123 40.3866 223.913 38.0479 225.083 36.0231C226.257 33.9784 227.69 32.3006 229.383 30.9897C231.057 29.6757 232.925 28.7492 234.989 28.2104C237.054 27.6715 239.193 27.573 241.407 27.915C243.621 28.257 245.636 29.0277 247.452 30.2272C249.271 31.4067 250.788 32.8868 252.004 34.6675C253.217 36.4681 254.075 38.5102 254.58 40.7937C255.089 43.0573 255.147 45.4556 254.756 47.9888ZM248.452 46.9538C248.674 45.5177 248.719 44.034 248.588 42.5025C248.457 40.9711 248.092 39.5669 247.493 38.2899C246.897 36.9929 246.036 35.8899 244.91 34.9808C243.787 34.0518 242.349 33.4518 240.593 33.1807C238.898 32.9188 237.385 33.0629 236.054 33.613C234.727 34.1431 233.583 34.9365 232.623 35.9931C231.667 37.0298 230.895 38.2584 230.308 39.679C229.721 41.0995 229.317 42.5278 229.095 43.9639C228.873 45.4 228.839 46.8753 228.993 48.3899C229.17 49.8876 229.567 51.2865 230.183 52.5865C230.802 53.8666 231.651 54.9781 232.731 55.9208C233.834 56.8468 235.193 57.4345 236.808 57.684C238.504 57.9459 240.017 57.8018 241.348 57.2518C242.701 56.6848 243.866 55.8846 244.843 54.8509C245.823 53.7974 246.613 52.5818 247.214 51.2042C247.817 49.8067 248.23 48.3899 248.452 46.9538Z" fill="black"/>
<path d="M290.212 47.9888C289.824 50.5019 289.046 52.7609 287.878 54.7657C286.711 56.7705 285.278 58.4483 283.578 59.7991C281.879 61.15 279.984 62.1132 277.894 62.6889C275.8 63.2845 273.647 63.4114 271.433 63.0694C266.905 62.3701 263.395 60.1737 260.902 56.4804C259.683 54.7197 258.821 52.6975 258.316 50.414C257.811 48.1305 257.762 45.6723 258.169 43.0394C258.579 40.3866 259.369 38.0479 260.539 36.0231C261.713 33.9784 263.146 32.3006 264.839 30.9897C266.513 29.6757 268.381 28.7492 270.445 28.2104C272.51 27.6715 274.649 27.573 276.863 27.915C279.077 28.257 281.092 29.0277 282.908 30.2272C284.727 31.4067 286.244 32.8868 287.46 34.6675C288.673 36.4681 289.531 38.5102 290.036 40.7937C290.545 43.0573 290.603 45.4556 290.212 47.9888ZM283.908 46.9538C284.13 45.5177 284.175 44.034 284.044 42.5025C283.913 40.9711 283.548 39.5669 282.949 38.2899C282.353 36.9929 281.492 35.8899 280.366 34.9808C279.243 34.0518 277.805 33.4518 276.049 33.1807C274.354 32.9188 272.841 33.0629 271.51 33.613C270.183 34.1431 269.039 34.9365 268.079 35.9931C267.123 37.0298 266.351 38.2584 265.764 39.679C265.177 41.0995 264.773 42.5278 264.551 43.9639C264.329 45.4 264.295 46.8753 264.449 48.3899C264.626 49.8876 265.023 51.2865 265.639 52.5865C266.258 53.8666 267.107 54.9781 268.187 55.9208C269.29 56.8468 270.649 57.4345 272.265 57.684C273.96 57.9459 275.473 57.8018 276.804 57.2518C278.157 56.6848 279.322 55.8846 280.299 54.8509C281.279 53.7974 282.069 52.5818 282.67 51.2042C283.273 49.8067 283.686 48.3899 283.908 46.9538Z" fill="black"/>
<path d="M130.545 40.8939L147.545 40.1969V46.5302L130.673 47.1969L130.545 40.8939Z" fill="black"/>
<path d="M118.032 30.1293L117.725 24.507L123.269 24.318L125.201 56.7704C125.221 57.374 125.214 57.9888 125.179 58.6148C125.144 59.2408 125.071 59.8599 124.959 60.472C124.516 62.9768 123.486 65.3024 121.867 67.4486C121.047 68.5035 120.098 69.4629 119.019 70.3266C117.921 71.1727 116.682 71.8862 115.302 72.467C113.923 73.0667 112.401 73.4866 110.734 73.7269C108.518 73.946 106.356 73.8497 104.251 73.438C102.374 73.0681 100.531 72.3274 98.7196 71.2161C96.9087 70.1048 95.509 68.4848 94.5205 66.3562L99.8161 63.6316C100.571 65.0759 101.577 66.1638 102.834 66.8951C104.112 67.6441 105.389 68.1001 106.666 68.2631C108.059 68.4753 109.512 68.4379 111.025 68.1509C111.675 67.9764 112.276 67.7674 112.827 67.5238C113.397 67.2789 113.918 67.0089 114.391 66.7137C115.315 66.1056 116.095 65.4409 116.728 64.7193C117.382 64.0154 117.892 63.283 118.259 62.5221C118.441 62.1322 118.596 61.7536 118.724 61.3862C118.87 61.0176 118.998 60.6596 119.108 60.3123C119.309 59.6188 119.429 58.9873 119.467 58.4177C119.526 57.8657 119.546 57.4392 119.526 57.138L119.287 53.4393C118.227 54.5853 117.104 55.4897 115.918 56.1525C114.75 56.7952 113.657 57.2819 112.639 57.6124C112.046 57.802 111.452 57.9634 110.856 58.0965C110.278 58.2284 109.698 58.3227 109.116 58.3793C104.674 58.667 100.908 57.4272 97.8174 54.6597C96.3331 53.3382 95.1204 51.6872 94.1793 49.7068C93.2571 47.7251 92.7136 45.4637 92.5491 42.9226C92.3832 40.3627 92.6781 38.0564 93.4335 36.0039C94.2066 33.9313 95.2639 32.1616 96.6054 30.6949C97.9658 29.227 99.5263 28.0768 101.287 27.2445C103.046 26.3934 104.849 25.9081 106.693 25.7886C107.983 25.8563 109.291 26.0551 110.616 26.3851C111.75 26.6708 112.978 27.1016 114.301 27.6775C115.623 28.2534 116.867 29.0707 118.032 30.1293ZM108.765 52.9583C111.287 52.7949 113.502 51.8198 115.408 50.0329C116.3 49.2002 117.04 48.2261 117.629 47.1105C118.217 45.9761 118.592 44.7516 118.752 43.4369L118.513 39.7382C118.219 38.4152 117.698 37.2298 116.95 36.1819C116.2 35.1153 115.31 34.2183 114.28 33.4912C112.14 31.9664 109.781 31.2875 107.202 31.4546C105.847 31.5424 104.613 31.9058 103.502 32.5448C102.408 33.1639 101.478 33.9896 100.713 35.022C99.9673 36.0532 99.4023 37.2523 99.0183 38.6192C98.6343 39.9861 98.4923 41.4413 98.5923 42.9848C98.6922 44.5283 99.0196 45.9342 99.5743 47.2025C100.128 48.452 100.858 49.5199 101.766 50.4062C102.654 51.2749 103.69 51.9449 104.874 52.4164C106.075 52.8679 107.372 53.0485 108.765 52.9583Z" fill="black"/>
<path d="M65.3107 62.376L58.7648 62.8048L59.1707 45.8154C59.1989 44.6647 59.2318 43.4334 59.2696 42.1214C59.3085 40.7894 59.3427 39.5379 59.372 38.367C59.4025 37.1759 59.4281 36.2373 59.4488 35.5511C59.5375 32.7056 59.6043 30.5665 59.6493 29.1337L66.5466 29.4234L66.1488 38.1339C66.8821 37.0252 67.7018 35.9924 68.608 35.0355C69.5154 34.0584 70.4861 33.2065 71.5201 32.4796C72.5541 31.7527 73.6395 31.1805 74.7764 30.763C75.9334 30.3467 77.1288 30.1349 78.3626 30.1276C79.9198 30.1193 81.2518 30.3301 82.3584 30.7599C83.465 31.1898 84.402 31.7511 85.1694 32.4438C85.9381 33.1164 86.5579 33.9115 87.0289 34.8292C87.5188 35.7682 87.8778 36.6994 88.1058 37.6228C88.3528 38.5675 88.5085 39.517 88.573 40.471C88.6588 41.4062 88.699 42.2577 88.6937 43.0257C88.608 46.4981 88.4306 49.9853 88.1612 53.4872C87.8919 56.9891 87.6047 60.6213 87.2996 64.3839L81.1171 63.8032C81.4716 60.5692 81.8059 57.334 82.1201 54.0976C82.4544 50.8624 82.6394 47.588 82.6751 44.2744C82.7172 43.5693 82.6846 42.7586 82.5774 41.8424C82.4715 40.9061 82.234 39.972 81.8649 39.0402C81.6 38.3976 81.2401 37.8202 80.7854 37.3078C80.3295 36.8157 79.7562 36.4277 79.0655 36.1439C78.3949 35.8613 77.592 35.7629 76.6569 35.8487C75.0509 35.9956 73.3702 37.058 71.6146 39.0359C70.2001 40.603 68.6369 42.8558 66.9248 45.7945C66.1341 47.1517 65.7239 48.6937 65.6734 50.2636L65.5008 55.6244C65.4633 56.5926 65.433 57.44 65.41 58.1665C65.3869 58.893 65.3704 59.5086 65.3605 60.0135C65.3312 61.1844 65.3146 61.9719 65.3107 62.376Z" fill="black"/>
<path d="M44.7428 32.1868L50.9671 31.418L51.9126 46.4677C52.155 50.6078 52.364 53.8578 52.5397 56.2175C52.7184 59.1022 52.8762 61.3688 53.013 63.0174L46.8282 63.5308C46.7548 62.4023 46.6727 61.1694 46.582 59.8322C46.5096 58.4725 46.4194 57.0197 46.3113 55.4738C46.1281 52.7785 45.9173 49.5078 45.679 45.6615L44.7428 32.1868Z" fill="black"/>
<path d="M50.4567 27.666C51.2514 26.7494 51.6004 25.7079 51.5035 24.5413C51.405 23.3547 50.8883 22.3748 49.9533 21.6019C49.0368 20.8071 47.9852 20.459 46.7985 20.5575C45.6319 20.6544 44.6622 21.1703 43.8892 22.1053C43.1347 23.0185 42.8067 24.0684 42.9052 25.2551C43.002 26.4216 43.4978 27.3931 44.3926 28.1694C45.3058 28.9239 46.3457 29.2527 47.5122 29.1559C48.6989 29.0574 49.6804 28.5607 50.4567 27.666Z" fill="black"/>
<path d="M16.2114 58.5783L40.7811 57.1915L41.0574 63.7048L9.99996 64.8481L12.4166 21.0129L18.6556 21.0137L16.2114 58.5783Z" fill="black"/>
</svg>
