<svg width="146" height="147" viewBox="0 0 146 147" fill="none" xmlns="http://www.w3.org/2000/svg">
<g filter="url(#filter0_d_228_8391)">
<g clip-path="url(#clip0_228_8391)">
<rect x="30.5049" y="30.5957" width="85.512" height="85.512" rx="42.756" fill="white"/>
<g style="mix-blend-mode:multiply" opacity="0.4">
<path d="M73.2668 123.474C100.862 123.474 123.233 101.103 123.233 73.5078C123.233 45.9124 100.862 23.542 73.2668 23.542C45.6715 23.542 23.301 45.9124 23.301 73.5078C23.301 101.103 45.6715 123.474 73.2668 123.474Z" fill="#565769"/>
</g>
<g style="mix-blend-mode:multiply" opacity="0.2">
<path d="M73.2668 123.473C100.862 123.473 123.233 101.103 123.233 73.5075C123.233 45.9122 100.862 23.5417 73.2668 23.5417C45.6715 23.5417 23.301 45.9122 23.301 73.5075C23.301 101.103 45.6715 123.473 73.2668 123.473Z" fill="#565769"/>
</g>
<mask id="mask0_228_8391" style="mask-type:luminance" maskUnits="userSpaceOnUse" x="22" y="22" width="103" height="103">
<path d="M73.2663 124.584C101.475 124.584 124.342 101.717 124.342 73.508C124.342 45.2995 101.475 22.4319 73.2663 22.4319C45.0578 22.4319 22.1902 45.2995 22.1902 73.508C22.1902 101.717 45.0578 124.584 73.2663 124.584Z" fill="white"/>
</mask>
<g mask="url(#mask0_228_8391)">
<path d="M148.77 91.2734H-2.2373V124.584H148.77V91.2734Z" fill="#51A9ED"/>
<path d="M148.77 22.4319H-2.2373V55.7424H148.77V22.4319Z" fill="#51A9ED"/>
<g style="mix-blend-mode:overlay" opacity="0.2">
<path d="M153.212 60.1836V91.2734H-6.67847V60.1836H153.212ZM155.433 57.9629H-8.89917V93.4941H155.433V57.9629Z" fill="black"/>
</g>
<path d="M148.77 55.7427H-2.2373V91.2739H148.77V55.7427Z" fill="white"/>
<path d="M86.5913 74.2631C86.7974 74.2631 86.9952 74.1812 87.1409 74.0354C87.2867 73.8897 87.3686 73.692 87.3686 73.4858C87.3686 73.2797 87.2867 73.082 87.1409 72.9362C86.9952 72.7904 86.7974 72.7086 86.5913 72.7086C86.5913 72.7086 84.9258 72.4421 82.4386 72.22H81.6613L82.372 71.9091C84.5927 70.932 86.1694 70.1548 86.1694 70.1548C86.3233 70.087 86.4493 69.9684 86.5261 69.8188C86.6029 69.6692 86.6259 69.4977 86.5913 69.3331C86.5586 69.1301 86.4467 68.9483 86.2802 68.8276C86.1137 68.7069 85.9062 68.6571 85.703 68.6891C85.703 68.6891 84.0375 68.9556 81.5947 69.5108L80.8397 69.6884L81.4171 69.1777C83.3047 67.5121 84.5038 66.3352 84.5038 66.3352C84.6267 66.2215 84.707 66.0691 84.7312 65.9034C84.7555 65.7378 84.7222 65.5688 84.6371 65.4247C84.5945 65.3305 84.5331 65.246 84.4566 65.1765C84.3801 65.107 84.2901 65.054 84.1923 65.0207C84.0945 64.9873 83.9908 64.9745 83.8877 64.9829C83.7847 64.9913 83.6845 65.0207 83.5933 65.0694C83.5933 65.0694 82.0833 65.8466 79.9292 67.1346L79.263 67.5343L79.6627 66.8681C80.9507 64.6474 81.728 63.204 81.728 63.204C81.7963 63.0541 81.818 62.8872 81.7903 62.7248C81.7626 62.5624 81.6867 62.4122 81.5725 62.2935C81.5001 62.2196 81.4138 62.161 81.3184 62.1209C81.2231 62.0808 81.1207 62.0602 81.0173 62.0602C80.9139 62.0602 80.8116 62.0808 80.7162 62.1209C80.6209 62.161 80.5345 62.2196 80.4621 62.2935C80.4621 62.2935 79.2852 63.4927 77.6197 65.3802C77.4642 65.5579 77.2866 65.78 77.1089 65.9577C77.1089 65.7134 77.2421 65.4469 77.2866 65.2026C77.8417 62.7598 78.1082 61.0943 78.1082 61.0943C78.1542 60.9197 78.1397 60.7347 78.0671 60.5694C77.9946 60.404 77.8682 60.2681 77.7085 60.1838C77.5225 60.0892 77.3069 60.0712 77.1077 60.1334C76.9086 60.1956 76.7416 60.3333 76.6425 60.5169C76.6425 60.5169 75.8875 62.027 74.9104 64.3365L74.4885 65.3136V64.3365L74.1332 60.1616C74.1226 59.9766 74.0443 59.8019 73.9133 59.6709C73.7822 59.5399 73.6076 59.4616 73.4226 59.451C73.2175 59.4383 73.0155 59.5051 72.8584 59.6374C72.7013 59.7697 72.6011 59.9574 72.5787 60.1616L72.2234 64.3365C72.2234 64.714 72.2234 65.1804 72.1124 65.6245L71.6016 64.4254L69.9804 60.5835C69.8987 60.4158 69.7593 60.2831 69.5878 60.2096C69.4162 60.1361 69.224 60.1269 69.0462 60.1834C68.8683 60.24 68.7168 60.3587 68.6192 60.5178C68.5216 60.6769 68.4846 60.8657 68.5148 61.0499L69.4697 65.1138C69.4697 65.5135 69.6474 65.9576 69.7584 66.3796L68.8923 65.4025L66.1608 62.2491C66.0305 62.1127 65.8551 62.0283 65.6673 62.0117C65.4794 61.9951 65.2919 62.0474 65.1397 62.1588C64.9875 62.2702 64.881 62.4332 64.84 62.6173C64.7991 62.8014 64.8266 62.9942 64.9172 63.1595L67.1379 66.7349L67.8042 67.8452L66.6938 67.179L63.1185 64.9583C62.9622 64.856 62.7736 64.8153 62.589 64.844C62.4044 64.8727 62.237 64.9688 62.1192 65.1138C61.9768 65.2591 61.897 65.4544 61.897 65.6578C61.897 65.8613 61.9768 66.0566 62.1192 66.2019L65.2726 68.9334L66.2497 69.7773L64.9839 69.5108L60.92 68.5559C60.7359 68.5257 60.547 68.5627 60.3879 68.6603C60.2288 68.7578 60.1101 68.9094 60.0536 69.0872C59.997 69.265 60.0063 69.4573 60.0797 69.6288C60.1532 69.8004 60.2859 69.9397 60.4537 70.0215L64.2954 71.6426L65.4946 72.1534H64.2067L60.0317 72.5087C59.8467 72.5193 59.6721 72.5976 59.541 72.7286C59.41 72.8597 59.3317 73.0343 59.3211 73.2193C59.3085 73.4243 59.3752 73.6264 59.5075 73.7835C59.6398 73.9406 59.8276 74.0408 60.0317 74.0632L64.2067 74.4185L65.4946 74.5296L64.2954 75.0403L60.4537 76.6614C60.2859 76.7432 60.1532 76.8826 60.0797 77.0541C60.0063 77.2257 59.997 77.4179 60.0536 77.5957C60.1101 77.7736 60.2288 77.9251 60.3879 78.0227C60.547 78.1202 60.7359 78.1573 60.92 78.1271L64.9839 77.1722L66.2497 76.8835L65.2726 77.7496L62.1636 80.6809C62.0244 80.7978 61.932 80.9609 61.9035 81.1404C61.8749 81.3199 61.9121 81.5037 62.0081 81.658C62.0584 81.7477 62.1266 81.8263 62.2084 81.8887C62.2902 81.9512 62.3838 81.9963 62.4836 82.0212C62.5834 82.0462 62.6873 82.0505 62.7888 82.0338C62.8904 82.0172 62.9875 81.98 63.0741 81.9245L66.6494 79.7038L67.7597 79.0376L67.0936 80.1479L64.8729 83.7233C64.7753 83.881 64.7373 84.0684 64.7658 84.2516C64.7943 84.4349 64.8874 84.6019 65.0283 84.7226C65.1736 84.865 65.3689 84.9448 65.5724 84.9448C65.7758 84.9448 65.9711 84.865 66.1164 84.7226L68.8479 81.5692L69.714 80.5921C69.6029 81.014 69.5141 81.4581 69.4253 81.8578C68.8479 84.2784 68.4704 85.9217 68.4704 85.9217C68.4402 86.1059 68.4773 86.2948 68.5748 86.4539C68.6724 86.613 68.8239 86.7316 69.0017 86.7882C69.1795 86.8448 69.3718 86.8355 69.5433 86.762C69.7149 86.6886 69.8543 86.5558 69.936 86.3881L71.5572 82.5463L71.9569 81.6136C71.9569 81.9689 71.9569 82.3686 71.9569 82.6795C72.179 85.1889 72.4455 86.8544 72.4455 86.8544C72.4455 87.0606 72.5273 87.2583 72.6731 87.404C72.8189 87.5498 73.0166 87.6317 73.2227 87.6317C73.4288 87.6317 73.6265 87.5498 73.7723 87.404C73.918 87.2583 73.9999 87.0606 73.9999 86.8544C73.9999 86.8544 74.2664 85.1889 74.4885 82.6795C74.4885 82.4575 74.4885 82.1687 74.4885 81.9245C74.4885 82.1465 74.6884 82.413 74.7994 82.6351C75.7765 84.8558 76.5315 86.4325 76.5315 86.4325C76.6227 86.5892 76.7644 86.7103 76.9334 86.7758C77.1024 86.8414 77.2886 86.8475 77.4616 86.7933C77.6346 86.7391 77.784 86.6277 77.8854 86.4774C77.9867 86.3271 78.034 86.1468 78.0194 85.9662C78.0194 85.9662 77.7529 84.3006 77.1977 81.8578C77.1977 81.6136 77.0867 81.3471 77.0201 81.1028C77.1977 81.2805 77.3754 81.5025 77.5309 81.6802C79.1964 83.5678 80.3734 84.767 80.3734 84.767C80.5092 84.8871 80.6817 84.9574 80.8627 84.9665C81.0438 84.9756 81.2226 84.9229 81.3697 84.8171C81.5169 84.7112 81.6237 84.5585 81.6727 84.384C81.7216 84.2094 81.7098 84.0234 81.6391 83.8565C81.6391 83.8565 80.8619 82.3464 79.5739 80.1923L79.1742 79.5261L79.8404 79.9258C82.0611 81.2139 83.5045 81.9911 83.5045 81.9911C83.6544 82.0594 83.8214 82.0812 83.9837 82.0534C84.1461 82.0257 84.2963 81.9498 84.415 81.8357C84.4889 81.7633 84.5475 81.6769 84.5876 81.5816C84.6277 81.4863 84.6483 81.3839 84.6483 81.2805C84.6483 81.1771 84.6277 81.0747 84.5876 80.9794C84.5475 80.884 84.4889 80.7977 84.415 80.7253C84.415 80.7253 83.2159 79.5261 81.3283 77.8828L80.7509 77.3721L81.5059 77.5497C83.9487 78.1049 85.6142 78.3714 85.6142 78.3714C85.7949 78.3859 85.9752 78.3387 86.1255 78.2373C86.2758 78.136 86.3872 77.9866 86.4414 77.8136C86.4956 77.6406 86.4894 77.4543 86.4238 77.2853C86.3583 77.1163 86.2372 76.9747 86.0805 76.8835C86.0805 76.8835 84.5927 76.1284 82.2831 75.1291L81.5725 74.8405H82.3498C84.948 74.5074 86.5913 74.2631 86.5913 74.2631Z" fill="#FFC400"/>
<g style="mix-blend-mode:overlay" opacity="0.3">
<path d="M73.2668 126.805C102.702 126.805 126.564 102.943 126.564 73.508C126.564 44.073 102.702 20.2112 73.2668 20.2112C43.8318 20.2112 19.97 44.073 19.97 73.508C19.97 102.943 43.8318 126.805 73.2668 126.805Z" stroke="black" stroke-width="8.5512" stroke-miterlimit="10"/>
</g>
</g>
</g>
<rect x="25.1604" y="25.2512" width="96.201" height="96.201" rx="48.1005" stroke="white" stroke-width="10.689"/>
</g>
<defs>
<filter id="filter0_d_228_8391" x="0.575716" y="0.666536" width="145.37" height="145.37" filterUnits="userSpaceOnUse" color-interpolation-filters="sRGB">
<feFlood flood-opacity="0" result="BackgroundImageFix"/>
<feColorMatrix in="SourceAlpha" type="matrix" values="0 0 0 0 0 0 0 0 0 0 0 0 0 0 0 0 0 0 127 0" result="hardAlpha"/>
<feOffset/>
<feGaussianBlur stdDeviation="9.6201"/>
<feComposite in2="hardAlpha" operator="out"/>
<feColorMatrix type="matrix" values="0 0 0 0 0 0 0 0 0 0 0 0 0 0 0 0 0 0 0.35 0"/>
<feBlend mode="normal" in2="BackgroundImageFix" result="effect1_dropShadow_228_8391"/>
<feBlend mode="normal" in="SourceGraphic" in2="effect1_dropShadow_228_8391" result="shape"/>
</filter>
<clipPath id="clip0_228_8391">
<rect x="30.5049" y="30.5957" width="85.512" height="85.512" rx="42.756" fill="white"/>
</clipPath>
</defs>
</svg>
