<svg width="158" height="158" viewBox="0 0 158 158" fill="none" xmlns="http://www.w3.org/2000/svg">
<g filter="url(#filter0_d_228_8082)">
<g clip-path="url(#clip0_228_8082)">
<rect x="41.9536" y="24.897" width="92.318" height="92.318" rx="46.159" transform="rotate(10.5634 41.9536 24.897)" fill="white"/>
<mask id="mask0_228_8082" style="mask-type:luminance" maskUnits="userSpaceOnUse" x="30" y="29" width="99" height="99">
<path d="M70.441 126.614C97.1062 131.587 122.754 114.002 127.726 87.3365C132.699 60.6713 115.114 35.0237 88.4484 30.0511C61.7832 25.0785 36.1356 42.6638 31.163 69.3291C26.1904 95.9943 43.7757 121.642 70.441 126.614Z" fill="white"/>
</mask>
<g mask="url(#mask0_228_8082)">
<path d="M159.822 43.3609L17.0757 16.7412L-0.931771 113.305L141.814 139.924L159.822 43.3609Z" fill="#0FB20F"/>
<g style="mix-blend-mode:overlay" opacity="0.3">
<path d="M87.2743 36.3487L132.891 88.2995L71.6157 120.317L25.9993 68.366L87.2743 36.3487ZM87.7715 33.6827L86.2821 34.4476L25.028 66.4689L22.6196 67.7358L24.4095 69.7856L70.0049 121.732L71.1185 122.983L72.6079 122.218L133.862 90.1967L136.27 88.9298L134.481 86.8799L88.8851 34.933L87.7715 33.6827Z" fill="black"/>
</g>
<path d="M132.891 88.2994L71.6159 120.317L25.9995 68.3659L87.2746 36.3486L132.891 88.2994Z" fill="#FFF71F"/>
<g style="mix-blend-mode:overlay">
<path d="M86.7774 39.0146L129.49 87.6652L72.1131 117.651L29.4002 69.0001L86.7774 39.0146ZM87.2746 36.3486L25.9995 68.3659L71.6159 120.317L132.891 88.2994L87.2746 36.3486Z" fill="white"/>
</g>
<path d="M74.3559 105.622C89.4276 108.433 103.924 98.4933 106.735 83.4216C109.545 68.35 99.6057 53.8535 84.534 51.0429C69.4624 48.2323 54.9659 58.1719 52.1553 73.2435C49.3447 88.3152 59.2843 102.812 74.3559 105.622Z" fill="#2C99ED"/>
<path d="M106.075 86.1447C105.641 87.6898 105.056 89.1886 104.329 90.6196C89.9535 73.8195 72.6575 70.7027 53.242 69.1674C53.7392 67.7418 54.3529 66.3596 55.077 65.0348C74.1962 66.6453 91.4032 70.0061 106.075 86.1447Z" fill="white"/>
<g style="mix-blend-mode:overlay" opacity="0.2">
<path d="M84.1426 53.1421C89.1248 54.0712 93.7196 56.4569 97.3459 59.9973C100.972 63.5378 103.467 68.0741 104.516 73.0326C105.564 77.9911 105.118 83.1491 103.235 87.8543C101.352 92.5595 98.1155 96.6006 93.9356 99.4666C89.7557 102.333 84.8198 103.895 79.7521 103.955C74.6843 104.016 69.7124 102.573 65.465 99.8078C61.2176 97.0428 57.8855 93.0804 55.89 88.4217C53.8946 83.763 53.3254 78.6172 54.2545 73.635C55.5004 66.9541 59.3492 61.0417 64.9543 57.1985C70.5594 53.3554 77.4617 51.8962 84.1426 53.1421ZM84.534 51.0429C79.1367 50.0364 73.562 50.653 68.5151 52.8147C63.4681 54.9764 59.1755 58.5862 56.1801 63.1876C53.1847 67.7889 51.6211 73.1752 51.6869 78.6653C51.7527 84.1553 53.445 89.5025 56.5498 94.0307C59.6546 98.559 64.0324 102.065 69.1297 104.105C74.2271 106.145 79.8149 106.628 85.1866 105.492C90.5583 104.357 95.4727 101.654 99.3082 97.7253C103.144 93.7967 105.728 88.819 106.735 83.4216C108.084 76.184 106.504 68.7066 102.34 62.6344C98.1768 56.5622 91.7717 52.3926 84.534 51.0429Z" fill="black"/>
</g>
<path d="M58.9051 81.1925L59.1139 82.7519L60.6673 83.0416L59.2356 83.7304L59.4443 85.2899L58.3532 84.1524L56.9253 84.8201L57.6821 83.4407L56.5949 82.2822L58.1483 82.5719L58.9051 81.1925Z" fill="white"/>
<path d="M75.7274 86.1544L75.8252 86.9112L76.5809 87.0522L75.8899 87.3795L75.9877 88.1363L75.4612 87.5819L74.7702 87.9092L75.1342 87.2386L74.6076 86.6842L75.3633 86.8251L75.7274 86.1544Z" fill="white"/>
<path d="M63.826 76.3541L63.9106 77.065L64.6244 77.1981L63.9793 77.5123L64.06 78.2442L63.5715 77.7186L62.9055 78.0289L63.2656 77.3792L62.7561 76.8497L63.4698 76.9828L63.826 76.3541Z" fill="white"/>
<path d="M69.5763 89.1998L69.6766 89.8267L70.3063 89.9441L69.7111 90.2241L69.8075 90.8721L69.3531 90.3963L68.7788 90.6802L69.0813 90.1067L68.648 89.6349L69.2777 89.7523L69.5763 89.1998Z" fill="white"/>
<path d="M70.4978 93.6939L70.6444 94.6553L71.61 94.8353L70.7066 95.2533L70.8492 96.2357L70.1572 95.5202L69.2748 95.9421L69.741 95.0733L69.0699 94.3617L70.0356 94.5417L70.4978 93.6939Z" fill="white"/>
<path d="M56.874 73.7976L56.9957 74.7761L57.9613 74.9561L57.0789 75.3781L57.2005 76.3565L56.5295 75.6449L55.6471 76.0669L56.1133 75.198L55.4423 74.4864L56.4079 74.6664L56.874 73.7976Z" fill="white"/>
<path d="M90.4341 95.0008L90.5557 95.9792L91.5214 96.1593L90.639 96.5812L90.7606 97.5597L90.0896 96.8481L89.2072 97.27L89.6733 96.4012L89.0023 95.6895L89.968 95.8696L90.4341 95.0008Z" fill="white"/>
<path d="M92.7947 82.3425L92.9163 83.321L93.8819 83.5011L92.9996 83.923L93.1212 84.9015L92.4502 84.1899L91.5678 84.6118L92.0339 83.743L91.3629 83.0313L92.3286 83.2114L92.7947 82.3425Z" fill="white"/>
<path d="M86.3416 91.0882L86.4671 92.0456L87.4327 92.2257L86.5503 92.6476L86.672 93.6261L86.001 92.9145L85.1186 93.3364L85.5847 92.4675L84.9137 91.7559L85.8793 91.936L86.3416 91.0882Z" fill="white"/>
<path d="M86.2604 84.5346L86.402 85.7557L87.6405 85.9867L86.5208 86.5164L86.6584 87.7585L85.8259 86.8647L84.7062 87.3944L85.3033 86.2893L84.4497 85.3916L85.6673 85.6187L86.2604 84.5346Z" fill="white"/>
<path d="M95.0493 70.2513L95.2026 71.4095L96.3361 71.6209L95.2911 72.0994L95.4444 73.2575L94.6461 72.4135L93.5972 72.913L94.1576 71.888L93.3553 71.065L94.4889 71.2764L95.0493 70.2513Z" fill="white"/>
<path d="M79.3473 80.4867L79.5099 81.7118L80.7274 81.9388L79.6077 82.4685L79.7703 83.6936L78.9167 82.7959L77.797 83.3256L78.3902 82.2415L77.5366 81.3438L78.7542 81.5708L79.3473 80.4867Z" fill="white"/>
<path d="M65.2304 82.2201L65.393 83.4452L66.6105 83.6722L65.4908 84.2019L65.6533 85.427L64.7998 84.5293L63.6801 85.059L64.2732 83.9749L63.4197 83.0772L64.6372 83.3042L65.2304 82.2201Z" fill="white"/>
<path d="M85.2289 98.9176L85.3705 100.139L86.609 100.37L85.4893 100.899L85.6479 102.145L84.7983 101.227L83.6747 101.777L84.2508 100.668L83.4182 99.7747L84.6358 100.002L85.2289 98.9176Z" fill="white"/>
<path d="M95.7934 93.2851L95.9559 94.5101L97.1735 94.7371L96.0538 95.2669L96.2124 96.5129L95.3628 95.5942L94.2391 96.1449L94.8362 95.0398L93.9827 94.1421L95.2002 94.3692L95.7934 93.2851Z" fill="white"/>
<path d="M79.8231 92.2613L80.028 93.8418L81.5814 94.1315L80.1536 94.7993L80.3584 96.3797L79.2711 95.2212L77.8394 95.9099L78.6001 94.5096L77.5089 93.372L79.0624 93.6617L79.8231 92.2613Z" fill="white"/>
<path d="M61.2503 90.1676L61.4381 91.7232L62.9916 92.0128L61.5808 92.7055L61.7896 94.265L60.7023 93.1065L59.2705 93.7952L60.0274 92.4158L58.9401 91.2573L60.4935 91.547L61.2503 90.1676Z" fill="white"/>
<path d="M96.6522 86.2335L96.861 87.793L98.4144 88.0826L96.9826 88.7714L97.1914 90.3309L96.1041 89.1724L94.6724 89.8611L95.4292 88.4817L94.3419 87.3232L95.8953 87.6129L96.6522 86.2335Z" fill="white"/>
<g style="mix-blend-mode:overlay" opacity="0.3">
<path d="M70.0502 128.713C97.8748 133.902 124.637 115.552 129.826 87.7277C135.015 59.9031 116.665 33.1404 88.8406 27.9516C61.016 22.7628 34.2533 41.1127 29.0645 68.9373C23.8757 96.7619 42.2256 123.525 70.0502 128.713Z" stroke="black" stroke-width="9.2318" stroke-miterlimit="10"/>
</g>
</g>
</g>
<rect x="37.3393" y="18.1671" width="103.858" height="103.858" rx="51.9289" transform="rotate(10.5634 37.3393 18.1671)" stroke="white" stroke-width="11.5398"/>
</g>
<defs>
<filter id="filter0_d_228_8082" x="0.387627" y="0.255058" width="156.961" height="156.961" filterUnits="userSpaceOnUse" color-interpolation-filters="sRGB">
<feFlood flood-opacity="0" result="BackgroundImageFix"/>
<feColorMatrix in="SourceAlpha" type="matrix" values="0 0 0 0 0 0 0 0 0 0 0 0 0 0 0 0 0 0 127 0" result="hardAlpha"/>
<feOffset/>
<feGaussianBlur stdDeviation="10.3858"/>
<feComposite in2="hardAlpha" operator="out"/>
<feColorMatrix type="matrix" values="0 0 0 0 0 0 0 0 0 0 0 0 0 0 0 0 0 0 0.35 0"/>
<feBlend mode="normal" in2="BackgroundImageFix" result="effect1_dropShadow_228_8082"/>
<feBlend mode="normal" in="SourceGraphic" in2="effect1_dropShadow_228_8082" result="shape"/>
</filter>
<clipPath id="clip0_228_8082">
<rect x="41.9536" y="24.897" width="92.318" height="92.318" rx="46.159" transform="rotate(10.5634 41.9536 24.897)" fill="white"/>
</clipPath>
</defs>
</svg>
