<svg width="149" height="149" viewBox="0 0 149 149" fill="none" xmlns="http://www.w3.org/2000/svg">
<g filter="url(#filter0_d_228_8284)">
<g clip-path="url(#clip0_228_8284)">
<rect x="30.7554" y="30.9839" width="86.8958" height="86.8958" rx="43.4479" fill="white"/>
<mask id="mask0_228_8284" style="mask-type:luminance" maskUnits="userSpaceOnUse" x="27" y="28" width="95" height="94">
<path d="M74.2064 121.908C100.119 121.908 121.126 100.902 121.126 74.9887C121.126 49.0758 100.119 28.0693 74.2064 28.0693C48.2936 28.0693 27.2871 49.0758 27.2871 74.9887C27.2871 100.902 48.2936 121.908 74.2064 121.908Z" fill="white"/>
</mask>
<g mask="url(#mask0_228_8284)">
<path d="M159.885 28.0693H21.1672V121.908H159.885V28.0693Z" fill="#F95834"/>
<path d="M50.3189 51.4677L52.624 58.6688H60.0903C60.2171 58.673 60.3394 58.7163 60.4404 58.793C60.5414 58.8697 60.616 58.9758 60.6541 59.0967C60.6922 59.2176 60.6918 59.3474 60.6529 59.4681C60.614 59.5888 60.5386 59.6944 60.4371 59.7704L54.3172 64.1563L56.6224 71.2554C56.6645 71.3784 56.6663 71.5117 56.6276 71.6358C56.5889 71.76 56.5117 71.8685 56.4071 71.9458C56.3026 72.0231 56.1761 72.0651 56.0461 72.0657C55.9161 72.0662 55.7892 72.0254 55.684 71.949L49.5641 67.5631L43.4442 71.949C43.3389 72.0254 43.2121 72.0662 43.0821 72.0657C42.952 72.0651 42.8256 72.0231 42.721 71.9458C42.6164 71.8685 42.5392 71.76 42.5005 71.6358C42.4618 71.5117 42.4637 71.3784 42.5058 71.2554L44.8109 64.1563L38.691 59.7704C38.5895 59.6944 38.5141 59.5888 38.4753 59.4681C38.4364 59.3474 38.436 59.2176 38.4741 59.0967C38.5121 58.9758 38.5868 58.8697 38.6878 58.793C38.7888 58.7163 38.9111 58.673 39.0378 58.6688H46.5041L48.8093 51.5697C48.8026 51.4706 48.8155 51.3711 48.8472 51.277C48.879 51.1828 48.9289 51.0959 48.9943 51.0211C49.0597 50.9462 49.1391 50.885 49.2281 50.8409C49.3171 50.7968 49.414 50.7706 49.5131 50.7639C49.6122 50.7572 49.7117 50.7701 49.8058 50.8019C49.8999 50.8336 49.9869 50.8836 50.0617 50.9489C50.1365 51.0143 50.1978 51.0937 50.2419 51.1827C50.286 51.2718 50.3122 51.3686 50.3189 51.4677Z" fill="#FFC300"/>
<path d="M65.333 35.6377L62.579 38.4528L59.0294 36.6985L60.8654 40.2072L58.0911 43.0224L61.9874 42.3696L63.8234 45.858L64.3946 41.9616L68.2909 41.2884L64.7618 39.534L65.333 35.6377Z" fill="#FFC300"/>
<path d="M79.3678 52.5489L75.4715 52.7121L74.1047 49.0605L73.0643 52.8141L69.168 52.9773L72.4115 55.1397L71.3711 58.8932L74.4107 56.4656L77.6746 58.628L76.3079 54.9765L79.3678 52.5489Z" fill="#FFC300"/>
<path d="M80.7962 74.948L77.267 71.8677L79.103 67.5837L75.0843 69.9705L71.5755 66.8901L72.6159 71.4597L68.5972 73.8464L73.2483 74.2748L74.2887 78.824L76.1247 74.54L80.7962 74.948Z" fill="#FFC300"/>
<path d="M63.7418 89.8803L63.3338 85.9227L66.965 84.2908L63.0686 83.4748L62.6607 79.4968L60.6615 82.9444L56.7651 82.108L59.4375 85.0863L57.4383 88.5339L61.0695 86.9019L63.7418 89.8803Z" fill="#FFC300"/>
<g style="mix-blend-mode:overlay" opacity="0.3">
<path d="M74.2064 123.948C101.246 123.948 123.166 102.028 123.166 74.9886C123.166 47.9491 101.246 26.0293 74.2064 26.0293C47.1669 26.0293 25.2471 47.9491 25.2471 74.9886C25.2471 102.028 47.1669 123.948 74.2064 123.948Z" stroke="black" stroke-width="8.68958" stroke-miterlimit="10"/>
</g>
</g>
</g>
<rect x="25.3244" y="25.5529" width="97.7577" height="97.7577" rx="48.8789" stroke="white" stroke-width="10.862"/>
</g>
<defs>
<filter id="filter0_d_228_8284" x="0.341764" y="0.57028" width="147.723" height="147.723" filterUnits="userSpaceOnUse" color-interpolation-filters="sRGB">
<feFlood flood-opacity="0" result="BackgroundImageFix"/>
<feColorMatrix in="SourceAlpha" type="matrix" values="0 0 0 0 0 0 0 0 0 0 0 0 0 0 0 0 0 0 127 0" result="hardAlpha"/>
<feOffset/>
<feGaussianBlur stdDeviation="9.77577"/>
<feComposite in2="hardAlpha" operator="out"/>
<feColorMatrix type="matrix" values="0 0 0 0 0 0 0 0 0 0 0 0 0 0 0 0 0 0 0.35 0"/>
<feBlend mode="normal" in2="BackgroundImageFix" result="effect1_dropShadow_228_8284"/>
<feBlend mode="normal" in="SourceGraphic" in2="effect1_dropShadow_228_8284" result="shape"/>
</filter>
<clipPath id="clip0_228_8284">
<rect x="30.7554" y="30.9839" width="86.8958" height="86.8958" rx="43.4479" fill="white"/>
</clipPath>
</defs>
</svg>
