<svg width="144" height="85" viewBox="0 0 144 85" fill="none" xmlns="http://www.w3.org/2000/svg">
<g filter="url(#filter0_d_228_8174)">
<g clip-path="url(#clip0_228_8174)">
<rect x="30.1052" y="30.0034" width="83.8723" height="83.8723" rx="41.9362" fill="white"/>
<mask id="mask0_228_8174" style="mask-type:luminance" maskUnits="userSpaceOnUse" x="26" y="27" width="90" height="91">
<path d="M71.164 117.356C95.9193 117.356 115.987 97.2874 115.987 72.5321C115.987 47.7769 95.9193 27.7087 71.164 27.7087C46.4087 27.7087 26.3406 47.7769 26.3406 72.5321C26.3406 97.2874 46.4087 117.356 71.164 117.356Z" fill="white"/>
</mask>
<g mask="url(#mask0_228_8174)">
<path d="M51.6753 27.7087H4.90308V117.356H51.6753V27.7087Z" fill="#2C99ED"/>
<path d="M137.424 27.7087H90.6521V117.356H137.424V27.7087Z" fill="#F95834"/>
<g style="mix-blend-mode:overlay" opacity="0.1">
<path d="M90.652 29.6576V115.407H51.6752V29.6576H90.652ZM92.6009 27.7087H49.7263V117.356H92.6009V27.7087Z" fill="black"/>
</g>
<path d="M90.9641 27.7087H51.3831V117.356H90.9641V27.7087Z" fill="white"/>
<g style="mix-blend-mode:overlay" opacity="0.3">
<path d="M71.1636 119.304C96.9952 119.304 117.936 98.3636 117.936 72.532C117.936 46.7004 96.9952 25.7598 71.1636 25.7598C45.332 25.7598 24.3914 46.7004 24.3914 72.532C24.3914 98.3636 45.332 119.304 71.1636 119.304Z" stroke="black" stroke-width="8.38723" stroke-miterlimit="10"/>
</g>
</g>
</g>
<rect x="24.8632" y="24.7614" width="94.3563" height="94.3563" rx="47.1782" stroke="white" stroke-width="10.484"/>
</g>
<defs>
<filter id="filter0_d_228_8174" x="0.749825" y="0.648018" width="142.583" height="142.583" filterUnits="userSpaceOnUse" color-interpolation-filters="sRGB">
<feFlood flood-opacity="0" result="BackgroundImageFix"/>
<feColorMatrix in="SourceAlpha" type="matrix" values="0 0 0 0 0 0 0 0 0 0 0 0 0 0 0 0 0 0 127 0" result="hardAlpha"/>
<feOffset/>
<feGaussianBlur stdDeviation="9.43563"/>
<feComposite in2="hardAlpha" operator="out"/>
<feColorMatrix type="matrix" values="0 0 0 0 0 0 0 0 0 0 0 0 0 0 0 0 0 0 0.35 0"/>
<feBlend mode="normal" in2="BackgroundImageFix" result="effect1_dropShadow_228_8174"/>
<feBlend mode="normal" in="SourceGraphic" in2="effect1_dropShadow_228_8174" result="shape"/>
</filter>
<clipPath id="clip0_228_8174">
<rect x="30.1052" y="30.0034" width="83.8723" height="83.8723" rx="41.9362" fill="white"/>
</clipPath>
</defs>
</svg>
