<svg width="147" height="147" viewBox="0 0 147 147" fill="none" xmlns="http://www.w3.org/2000/svg">
<g filter="url(#filter0_d_228_8354)">
<g clip-path="url(#clip0_228_8354)">
<rect x="38.2498" y="23.6831" width="86.3316" height="86.3316" rx="43.1658" transform="rotate(9.80581 38.2498 23.6831)" fill="white"/>
<mask id="mask0_228_8354" style="mask-type:luminance" maskUnits="userSpaceOnUse" x="24" y="22" width="100" height="100">
<path d="M65.5801 121.001C92.5954 125.67 118.281 107.555 122.95 80.5393C127.619 53.5241 109.504 27.8388 82.4887 23.1696C55.4734 18.5004 29.7881 36.6155 25.119 63.6308C20.4498 90.646 38.5649 116.331 65.5801 121.001Z" fill="white"/>
</mask>
<g mask="url(#mask0_228_8354)">
<path d="M143.404 101.597L-1.21582 76.6018L-6.72948 108.503L137.89 133.498L143.404 101.597Z" fill="#0FB20F"/>
<path d="M154.799 35.6674L10.179 10.6721L4.6653 42.5735L149.285 67.5688L154.799 35.6674Z" fill="#F99734"/>
<g style="mix-blend-mode:overlay" opacity="0.3">
<path d="M152.803 72.5573L147.657 102.332L-5.46942 75.8664L-0.323337 46.0917L152.803 72.5573ZM155.298 70.7981L-2.08252 43.5974L-7.96376 77.6256L149.416 104.826L155.298 70.7981Z" fill="black"/>
</g>
<path d="M149.285 67.5687L4.66528 42.5735L-1.21595 76.6016L143.404 101.597L149.285 67.5687Z" fill="white"/>
<path d="M71.4617 86.9727C68.5172 86.4638 65.7899 85.0932 63.6244 83.0342C61.4589 80.9752 59.9526 78.3204 59.296 75.4053C58.6393 72.4903 58.8619 69.446 59.9355 66.6574C61.009 63.8688 62.8853 61.4612 65.3272 59.7391C67.769 58.0169 70.6667 57.0574 73.6539 56.9821C76.641 56.9068 79.5834 57.719 82.109 59.3159C84.6345 60.9129 86.6299 63.2229 87.8426 65.9539C89.0553 68.6848 89.4309 71.714 88.922 74.6584C88.2396 78.6068 86.0167 82.1223 82.7423 84.4317C79.4678 86.7411 75.41 87.6551 71.4617 86.9727ZM76.2402 59.3248C73.7164 58.8886 71.1199 59.2106 68.7791 60.25C66.4383 61.2895 64.4583 62.9998 63.0895 65.1645C61.7207 67.3293 61.0245 69.8513 61.0891 72.4117C61.1536 74.9721 61.976 77.4559 63.4522 79.549C64.9283 81.642 66.992 83.2503 69.3822 84.1705C71.7724 85.0907 74.3817 85.2814 76.8803 84.7186C79.379 84.1558 81.6546 82.8647 83.4195 81.0086C85.1843 79.1525 86.3591 76.8146 86.7953 74.2908C87.3802 70.9065 86.5967 67.4285 84.6172 64.6218C82.6378 61.8151 79.6245 59.9098 76.2402 59.3248Z" fill="#1679DB"/>
<path d="M85.3879 76.4781L76.0739 73.4666L82.3592 80.9486L75.2675 74.2033L77.6803 83.6882L74.2261 74.5271L72.2844 84.1136L73.1553 74.3858L67.2327 82.1672L72.2329 73.7665L63.5342 78.2206L71.6957 72.8194L61.9081 73.0552L71.5993 71.7295L62.6818 67.6914L71.9958 70.7029L65.7105 63.2209L72.8021 69.9662L70.3893 60.4813L73.8436 69.6424L75.7852 60.0559L74.9143 69.7836L80.837 62.0023L75.8368 70.403L84.5355 65.9489L76.374 71.3501L86.1616 71.1143L76.4704 72.44L85.3879 76.4781Z" fill="#1679DB"/>
<g style="mix-blend-mode:overlay" opacity="0.3">
<path d="M65.2127 123.127C93.4026 127.999 120.205 109.097 125.077 80.9069C129.949 52.717 111.046 25.915 82.8564 21.0428C54.6666 16.1706 27.8645 35.0733 22.9924 63.2632C18.1202 91.453 37.0229 118.255 65.2127 123.127Z" stroke="black" stroke-width="8.63316" stroke-miterlimit="10"/>
</g>
</g>
</g>
<rect x="33.8518" y="17.4473" width="97.1231" height="97.1231" rx="48.5615" transform="rotate(9.80581 33.8518 17.4473)" stroke="white" stroke-width="10.7915"/>
</g>
<defs>
<filter id="filter0_d_228_8354" x="0.0426693" y="0.179144" width="146.781" height="146.781" filterUnits="userSpaceOnUse" color-interpolation-filters="sRGB">
<feFlood flood-opacity="0" result="BackgroundImageFix"/>
<feColorMatrix in="SourceAlpha" type="matrix" values="0 0 0 0 0 0 0 0 0 0 0 0 0 0 0 0 0 0 127 0" result="hardAlpha"/>
<feOffset/>
<feGaussianBlur stdDeviation="9.71231"/>
<feComposite in2="hardAlpha" operator="out"/>
<feColorMatrix type="matrix" values="0 0 0 0 0 0 0 0 0 0 0 0 0 0 0 0 0 0 0.35 0"/>
<feBlend mode="normal" in2="BackgroundImageFix" result="effect1_dropShadow_228_8354"/>
<feBlend mode="normal" in="SourceGraphic" in2="effect1_dropShadow_228_8354" result="shape"/>
</filter>
<clipPath id="clip0_228_8354">
<rect x="38.2498" y="23.6831" width="86.3316" height="86.3316" rx="43.1658" transform="rotate(9.80581 38.2498 23.6831)" fill="white"/>
</clipPath>
</defs>
</svg>
