<svg width="129" height="130" viewBox="0 0 129 130" fill="none" xmlns="http://www.w3.org/2000/svg">
<g filter="url(#filter0_d_228_8209)">
<g clip-path="url(#clip0_228_8209)">
<rect x="26.7607" y="27.105" width="75.6747" height="75.6747" rx="37.8374" fill="white"/>
<mask id="mask0_228_8209" style="mask-type:luminance" maskUnits="userSpaceOnUse" x="20" y="21" width="88" height="88">
<path d="M64.0237 108.104C88.0553 108.104 107.537 88.6222 107.537 64.5906C107.537 40.5591 88.0553 21.0776 64.0237 21.0776C39.9922 21.0776 20.5107 40.5591 20.5107 64.5906C20.5107 88.6222 39.9922 108.104 64.0237 108.104Z" fill="white"/>
</mask>
<g mask="url(#mask0_228_8209)">
<path d="M-0.299805 108.86V21.8345H128.347L-0.299805 108.86Z" fill="#0FB20F"/>
<path d="M128.347 108.86H1.59229L128.347 21.8345V108.86Z" fill="#2C99ED"/>
<g style="mix-blend-mode:overlay" opacity="0.2">
<path d="M130.239 21.2665V39.6365L-2.19163 113.211V94.8602L130.239 21.2665ZM132.131 18.0503L-4.0835 93.725V116.427L132.131 40.7527V18.0503Z" fill="black"/>
</g>
<path d="M-7.86743 89.601L135.915 9.72632V41.0935L-7.86743 120.968V89.601Z" fill="#FFC400"/>
<path d="M132.131 38.8609L-4.0835 114.536V91.8332L132.131 16.1584V38.8609Z" fill="#393C3D"/>
<g style="mix-blend-mode:overlay" opacity="0.1">
<path d="M130.239 19.3746V37.7447L-2.19163 111.319V92.9683L130.239 19.3746ZM132.131 16.1584L-4.0835 91.8332V114.536L132.131 38.8609V16.1584Z" fill="white"/>
</g>
<g style="mix-blend-mode:overlay" opacity="0.3">
<path d="M64.0237 109.995C89.1001 109.995 109.429 89.6668 109.429 64.5904C109.429 39.514 89.1001 19.1855 64.0237 19.1855C38.9473 19.1855 18.6189 39.514 18.6189 64.5904C18.6189 89.6668 38.9473 109.995 64.0237 109.995Z" stroke="black" stroke-width="7.56747" stroke-miterlimit="10"/>
</g>
</g>
</g>
<rect x="22.0311" y="22.3753" width="85.1341" height="85.1341" rx="42.567" stroke="white" stroke-width="9.45934"/>
</g>
<defs>
<filter id="filter0_d_228_8209" x="0.274696" y="0.618935" width="128.647" height="128.647" filterUnits="userSpaceOnUse" color-interpolation-filters="sRGB">
<feFlood flood-opacity="0" result="BackgroundImageFix"/>
<feColorMatrix in="SourceAlpha" type="matrix" values="0 0 0 0 0 0 0 0 0 0 0 0 0 0 0 0 0 0 127 0" result="hardAlpha"/>
<feOffset/>
<feGaussianBlur stdDeviation="8.51341"/>
<feComposite in2="hardAlpha" operator="out"/>
<feColorMatrix type="matrix" values="0 0 0 0 0 0 0 0 0 0 0 0 0 0 0 0 0 0 0.35 0"/>
<feBlend mode="normal" in2="BackgroundImageFix" result="effect1_dropShadow_228_8209"/>
<feBlend mode="normal" in="SourceGraphic" in2="effect1_dropShadow_228_8209" result="shape"/>
</filter>
<clipPath id="clip0_228_8209">
<rect x="26.7607" y="27.105" width="75.6747" height="75.6747" rx="37.8374" fill="white"/>
</clipPath>
</defs>
</svg>
