<svg width="144" height="127" viewBox="0 0 144 127" fill="none" xmlns="http://www.w3.org/2000/svg">
<g filter="url(#filter0_d_228_8321)">
<g clip-path="url(#clip0_228_8321)">
<rect x="36.6099" y="-12.2966" width="102.471" height="102.471" rx="51.2357" fill="white"/>
<mask id="mask0_228_8321" style="mask-type:luminance" maskUnits="userSpaceOnUse" x="33" y="-17" width="110" height="111">
<path d="M87.9217 93.2977C118.205 93.2977 142.755 68.748 142.755 38.4644C142.755 8.18081 118.205 -16.3689 87.9217 -16.3689C57.6381 -16.3689 33.0884 8.18081 33.0884 38.4644C33.0884 68.748 57.6381 93.2977 87.9217 93.2977Z" fill="white"/>
</mask>
<g mask="url(#mask0_228_8321)">
<path d="M168.98 -16.3689H6.86426V93.2977H168.98V-16.3689Z" fill="#F94A23"/>
<path d="M107.399 62.591H107.28C105.936 63.2438 104.54 63.786 103.108 64.2122C99.7991 65.1998 96.3264 65.5174 92.8932 65.1464C89.46 64.7754 86.1353 63.7233 83.1138 62.0515C80.0922 60.3798 77.4345 58.1221 75.2963 55.4106C73.158 52.6991 71.5822 49.5883 70.661 46.2602C69.9169 43.6172 69.5871 40.8747 69.6835 38.1306C69.7044 35.3737 70.1631 32.6377 71.0424 30.0248C73.1911 23.3568 77.8962 17.8129 84.1261 14.6086C90.3559 11.4043 97.6022 10.8011 104.276 12.9312C105.686 13.3834 107.051 13.966 108.353 14.6715C108.584 14.7395 108.832 14.7155 109.045 14.6043C109.259 14.4932 109.421 14.3036 109.497 14.0755C109.557 13.8949 109.557 13.6998 109.497 13.5194C109.437 13.3389 109.32 13.1828 109.163 13.0742C105.883 10.1634 102.036 7.96361 97.8631 6.61343C89.4819 3.93543 80.3808 4.69029 72.5553 8.7125C64.7299 12.7347 58.8188 19.696 56.1182 28.0699C55.0824 31.2287 54.5122 34.5214 54.4256 37.8445C54.3535 41.1634 54.7794 44.4743 55.6891 47.6668C56.841 51.8471 58.8155 55.7555 61.497 59.163C64.1784 62.5705 67.5129 65.4088 71.3051 67.5113C75.0973 69.6139 79.2709 70.9386 83.5815 71.4078C87.8921 71.877 92.253 71.4813 96.4088 70.2438C100.653 68.9944 104.602 66.9025 108.019 64.093C108.177 63.9851 108.296 63.8302 108.36 63.6503C108.425 63.4705 108.43 63.275 108.377 63.0917C108.294 62.91 108.153 62.7616 107.975 62.6707C107.798 62.5798 107.595 62.5517 107.399 62.591Z" fill="white"/>
<path d="M109.379 22.9678L112.931 33.8867H124.422L115.124 40.6575L118.676 51.5765L109.379 44.8296L100.081 51.5765L103.633 40.6575L94.3352 33.8867H105.826L109.379 22.9678Z" fill="white"/>
<g style="mix-blend-mode:overlay" opacity="0.3">
<path d="M87.922 95.6818C119.522 95.6818 145.139 70.0647 145.139 38.4644C145.139 6.86416 119.522 -18.7529 87.922 -18.7529C56.3217 -18.7529 30.7046 6.86416 30.7046 38.4644C30.7046 70.0647 56.3217 95.6818 87.922 95.6818Z" stroke="black" stroke-width="10.2471" stroke-miterlimit="10"/>
</g>
</g>
</g>
<rect x="30.2054" y="-18.7011" width="115.28" height="115.28" rx="57.6402" stroke="white" stroke-width="12.8089"/>
</g>
<defs>
<filter id="filter0_d_228_8321" x="0.744957" y="-48.1615" width="174.201" height="174.201" filterUnits="userSpaceOnUse" color-interpolation-filters="sRGB">
<feFlood flood-opacity="0" result="BackgroundImageFix"/>
<feColorMatrix in="SourceAlpha" type="matrix" values="0 0 0 0 0 0 0 0 0 0 0 0 0 0 0 0 0 0 127 0" result="hardAlpha"/>
<feOffset/>
<feGaussianBlur stdDeviation="11.528"/>
<feComposite in2="hardAlpha" operator="out"/>
<feColorMatrix type="matrix" values="0 0 0 0 0 0 0 0 0 0 0 0 0 0 0 0 0 0 0.35 0"/>
<feBlend mode="normal" in2="BackgroundImageFix" result="effect1_dropShadow_228_8321"/>
<feBlend mode="normal" in="SourceGraphic" in2="effect1_dropShadow_228_8321" result="shape"/>
</filter>
<clipPath id="clip0_228_8321">
<rect x="36.6099" y="-12.2966" width="102.471" height="102.471" rx="51.2357" fill="white"/>
</clipPath>
</defs>
</svg>
