<svg width="122" height="123" viewBox="0 0 122 123" fill="none" xmlns="http://www.w3.org/2000/svg">
<g filter="url(#filter0_d_228_8026)">
<g clip-path="url(#clip0_228_8026)">
<rect x="32.5383" y="19.9072" width="71.5757" height="71.5757" rx="35.7879" transform="rotate(10.6564 32.5383 19.9072)" fill="white"/>
<mask id="mask0_228_8026" style="mask-type:luminance" maskUnits="userSpaceOnUse" x="21" y="23" width="80" height="80">
<path d="M53.6219 101.735C75.0082 105.759 95.6074 91.6843 99.6316 70.298C103.656 48.9116 89.5808 28.3124 68.1945 24.2883C46.8082 20.2642 26.209 34.339 22.1849 55.7253C18.1607 77.1116 32.2356 97.7108 53.6219 101.735Z" fill="white"/>
</mask>
<g mask="url(#mask0_228_8026)">
<path d="M125.703 34.3945L11.2163 12.8523L-3.35635 90.299L111.13 111.841L125.703 34.3945Z" fill="#1C89DC"/>
<path d="M127.713 25.3428L63.6052 50.1748L69.1743 64.5524L133.283 39.7204L127.713 25.3428Z" fill="white"/>
<path d="M12.6285 3.70109L2.2146 15.0713L52.9131 61.5057L63.327 50.1355L12.6285 3.70109Z" fill="white"/>
<path d="M69.4154 63.2006L59.0015 74.5708L109.7 121.005L120.114 109.635L69.4154 63.2006Z" fill="white"/>
<path d="M53.1859 60.1265L-10.9224 84.9585L-5.35327 99.3361L58.755 74.5041L53.1859 60.1265Z" fill="white"/>
<path d="M120 64.6997L71.1753 55.5126L76.8776 25.2074L60.0414 22.0394L54.3391 52.3446L5.51396 43.1575L2.346 59.9938L51.1711 69.1809L45.4687 99.4861L62.305 102.654L68.0073 72.3488L116.832 81.536L120 64.6997Z" fill="#F95834"/>
<path d="M124.777 31.9923L70.2539 53.1116L72.1103 57.9041L126.633 36.7849L124.777 31.9923Z" fill="#F95834"/>
<path d="M12.9474 10.9626L9.47607 14.7527L52.5944 54.2445L56.0657 50.4544L12.9474 10.9626Z" fill="#F95834"/>
<path d="M69.734 70.4621L66.2627 74.2522L109.381 113.744L112.852 109.954L69.734 70.4621Z" fill="#F95834"/>
<path d="M50.2497 66.7755L-4.27344 87.8948L-2.41707 92.6873L52.1061 71.5681L50.2497 66.7755Z" fill="#F95834"/>
<path d="M77.1764 51.412L81.9283 26.1577L76.8774 25.2073L72.1255 50.4616L71.1751 55.5125L76.226 56.4629L120 64.6996L120.951 59.6487L77.1764 51.412Z" fill="white"/>
<path d="M54.9905 21.089L50.2386 46.3434L6.46436 38.1067L5.51396 43.1575L49.2882 51.3942L54.3391 52.3446L55.2894 47.2938L60.0414 22.0394L54.9905 21.089Z" fill="white"/>
<path d="M116.832 81.5357L73.058 73.299L68.0071 72.3486L67.0567 77.3995L62.3047 102.654L67.3556 103.604L72.1076 78.3499L115.882 86.5866L116.832 81.5357Z" fill="white"/>
<path d="M46.1202 68.2304L2.34595 59.9937L1.39556 65.0445L45.1698 73.2812L40.4178 98.5356L45.4687 99.486L50.2206 74.2316L51.171 69.1808L46.1202 68.2304Z" fill="white"/>
<g style="mix-blend-mode:overlay" opacity="0.3">
<path d="M123.802 34.2109L124.408 35.8067L73.0598 55.7798L72.4536 54.1839L123.802 34.2109ZM124.775 32.0057L70.2474 53.1238L72.1028 57.9008L126.63 36.7826L124.775 32.0057Z" fill="black"/>
<path d="M13.0534 13.3718L53.6308 50.642L52.4861 51.9084L11.8928 14.7224L13.0376 13.456M12.9329 11.0481L9.48391 14.7398L52.6067 54.2321L56.0714 50.4563L12.9487 10.9639L12.9329 11.0481Z" fill="black"/>
<path d="M69.8442 72.8687L110.422 110.139L109.277 111.405L68.6995 74.135L69.8442 72.8687ZM69.7395 70.4607L66.2747 74.2366L109.397 113.729L112.862 109.953L69.7395 70.4607Z" fill="black"/>
<path d="M49.2705 68.9973L49.8767 70.5931L-1.47174 90.5661L-2.07794 88.9703L49.2705 68.9973ZM50.2433 66.7921L-4.28413 87.9102L-2.42867 92.6871L52.0988 71.569L50.2433 66.7921Z" fill="black"/>
</g>
<g style="mix-blend-mode:overlay" opacity="0.3">
<path d="M75.8275 21.5235L69.1747 56.8796L121.367 66.7003L118.833 80.1693L66.6404 70.3486L59.6708 107.388L46.2018 104.854L53.1714 67.8142L0.979033 57.9935L3.51341 44.5245L55.7057 54.3452L62.3585 18.9891L75.8275 21.5235ZM77.8279 20.1566L60.9917 16.9887L54.3389 52.3448L2.14658 42.5241L-1.02139 59.3603L51.171 69.181L44.2014 106.221L61.0377 109.389L68.0072 72.349L120.2 82.1697L123.367 65.3334L71.1752 55.5127L77.8279 20.1566Z" fill="black"/>
</g>
<g style="mix-blend-mode:overlay" opacity="0.3">
<path d="M53.3055 103.419C75.6216 107.618 97.1165 92.9311 101.316 70.6149C105.515 48.2988 90.8279 26.8039 68.5117 22.6048C46.1956 18.4057 24.7007 33.0925 20.5016 55.4087C16.3025 77.7248 30.9893 99.2197 53.3055 103.419Z" stroke="black" stroke-width="7.15757" stroke-miterlimit="10"/>
</g>
</g>
</g>
<rect x="28.9692" y="14.6837" width="80.5227" height="80.5227" rx="40.2614" transform="rotate(10.6564 28.9692 14.6837)" stroke="white" stroke-width="8.94697"/>
</g>
<defs>
<filter id="filter0_d_228_8026" x="0.243603" y="0.848339" width="121.695" height="121.695" filterUnits="userSpaceOnUse" color-interpolation-filters="sRGB">
<feFlood flood-opacity="0" result="BackgroundImageFix"/>
<feColorMatrix in="SourceAlpha" type="matrix" values="0 0 0 0 0 0 0 0 0 0 0 0 0 0 0 0 0 0 127 0" result="hardAlpha"/>
<feOffset/>
<feGaussianBlur stdDeviation="8.05227"/>
<feComposite in2="hardAlpha" operator="out"/>
<feColorMatrix type="matrix" values="0 0 0 0 0 0 0 0 0 0 0 0 0 0 0 0 0 0 0.35 0"/>
<feBlend mode="normal" in2="BackgroundImageFix" result="effect1_dropShadow_228_8026"/>
<feBlend mode="normal" in="SourceGraphic" in2="effect1_dropShadow_228_8026" result="shape"/>
</filter>
<clipPath id="clip0_228_8026">
<rect x="32.5383" y="19.9072" width="71.5757" height="71.5757" rx="35.7879" transform="rotate(10.6564 32.5383 19.9072)" fill="white"/>
</clipPath>
</defs>
</svg>
